<svg xmlns="http://www.w3.org/2000/svg" width="1920" height="2160"><path d="M-196,-421L108,-417L627,-421Z" fill="#b46518" stroke="#b46518" stroke-width="1.51"/><path d="M-196,-421L627,-421L1434,-448Z" fill="#c28855" stroke="#c28855" stroke-width="1.51"/><path d="M1079,2568L272,2580L1596,2580Z" fill="#9277a1" stroke="#9277a1" stroke-width="1.51"/><path d="M1736,2549L1596,2580L1930,2561Z" fill="#5e4282" stroke="#5e4282" stroke-width="1.51"/><path d="M1434,-448L1694,-400L2233,-411Z" fill="#8e595c" stroke="#8e595c" stroke-width="1.51"/><path d="M2104,-191L2138,-45L2233,-411Z" fill="#823449" stroke="#823449" stroke-width="1.51"/><path d="M2097,-253L2104,-191L2233,-411Z" fill="#7d3249" stroke="#7d3249" stroke-width="1.51"/><path d="M2138,-45L2189,188L2233,-411Z" fill="#893949" stroke="#893949" stroke-width="1.51"/><path d="M2189,188L2225,523L2233,-411Z" fill="#94444c" stroke="#94444c" stroke-width="1.51"/><path d="M2044,892L2227,947L2238,668Z" fill="#a47c9d" stroke="#a47c9d" stroke-width="1.51"/><path d="M2233,-411L2225,523L2238,668Z" fill="#9a4f56" stroke="#9a4f56" stroke-width="1.51"/><path d="M1862,1752L1984,2048L2241,1625Z" fill="#7f65a9" stroke="#7f65a9" stroke-width="1.51"/><path d="M2167,2184L2118,2533L2267,2056Z" fill="#50267f" stroke="#50267f" stroke-width="1.51"/><path d="M2241,1625L1984,2048L2267,2056Z" fill="#6c5096" stroke="#6c5096" stroke-width="1.51"/><path d="M2227,947L2044,892L2292,1270Z" fill="#9f82ae" stroke="#9f82ae" stroke-width="1.51"/><path d="M2044,892L1866,1318L2292,1270Z" fill="#a48abf" stroke="#a48abf" stroke-width="1.51"/><path d="M2233,-411L2238,668L2292,1270Z" fill="#a0626d" stroke="#a0626d" stroke-width="1.51"/><path d="M1866,1318L2241,1399L2292,1270Z" fill="#977db4" stroke="#977db4" stroke-width="1.51"/><path d="M2238,668L2227,947L2292,1270Z" fill="#9b7a9f" stroke="#9b7a9f" stroke-width="1.51"/><path d="M2241,1625L2267,2056L2292,1270Z" fill="#795e99" stroke="#795e99" stroke-width="1.51"/><path d="M2241,1399L2241,1625L2292,1270Z" fill="#876ea2" stroke="#876ea2" stroke-width="1.51"/><path d="M627,-421L876,-374L1434,-448Z" fill="#c4967b" stroke="#c4967b" stroke-width="1.51"/><path d="M2189,188L1886,548L2225,523Z" fill="#ac6674" stroke="#ac6674" stroke-width="1.51"/><path d="M1985,1542L1862,1752L2241,1625Z" fill="#8b73b2" stroke="#8b73b2" stroke-width="1.51"/><path d="M1985,1542L2241,1625L2241,1399Z" fill="#8a6fab" stroke="#8a6fab" stroke-width="1.51"/><path d="M1984,2048L2167,2184L2267,2056Z" fill="#603e8e" stroke="#603e8e" stroke-width="1.51"/><path d="M1908,2227L2118,2533L2167,2184Z" fill="#552988" stroke="#552988" stroke-width="1.51"/><path d="M1867,157L1886,548L2189,188Z" fill="#b26c6f" stroke="#b26c6f" stroke-width="1.51"/><path d="M1694,-400L2097,-253L2233,-411Z" fill="#823e52" stroke="#823e52" stroke-width="1.51"/><path d="M2225,523L1956,697L2238,668Z" fill="#a97389" stroke="#a97389" stroke-width="1.51"/><path d="M1956,697L2044,892L2238,668Z" fill="#ac7f9e" stroke="#ac7f9e" stroke-width="1.51"/><path d="M1866,1318L1985,1542L2241,1399Z" fill="#9a83bb" stroke="#9a83bb" stroke-width="1.51"/><path d="M1886,548L1956,697L2225,523Z" fill="#b37d8e" stroke="#b37d8e" stroke-width="1.51"/><path d="M2138,-45L1867,157L2189,188Z" fill="#a1505b" stroke="#a1505b" stroke-width="1.51"/><path d="M1774,1256L1866,1318L2044,892Z" fill="#b1a2ca" stroke="#b1a2ca" stroke-width="1.51"/><path d="M1908,2227L1930,2561L2118,2533Z" fill="#532c80" stroke="#532c80" stroke-width="1.51"/><path d="M1984,2048L1908,2227L2167,2184Z" fill="#654395" stroke="#654395" stroke-width="1.51"/><path d="M1706,1025L1774,1256L2044,892Z" fill="#b9accc" stroke="#b9accc" stroke-width="1.51"/><path d="M2104,-191L1728,-76L2138,-45Z" fill="#994d58" stroke="#994d58" stroke-width="1.51"/><path d="M1728,-76L1867,157L2138,-45Z" fill="#a86060" stroke="#a86060" stroke-width="1.51"/><path d="M2097,-253L1728,-76L2104,-191Z" fill="#954b57" stroke="#954b57" stroke-width="1.51"/><path d="M1694,-400L1728,-76L2097,-253Z" fill="#995b5d" stroke="#995b5d" stroke-width="1.51"/><path d="M1867,157L1723,231L1886,548Z" fill="#be8379" stroke="#be8379" stroke-width="1.51"/><path d="M1956,697L1706,1025L2044,892Z" fill="#b89db6" stroke="#b89db6" stroke-width="1.51"/><path d="M1723,231L1693,490L1886,548Z" fill="#c69489" stroke="#c69489" stroke-width="1.51"/><path d="M1908,2227L1736,2549L1930,2561Z" fill="#5d3d88" stroke="#5d3d88" stroke-width="1.51"/><path d="M1694,641L1706,1025L1956,697Z" fill="#c2aab5" stroke="#c2aab5" stroke-width="1.51"/><path d="M1862,1752L1766,1774L1984,2048Z" fill="#8776b0" stroke="#8776b0" stroke-width="1.51"/><path d="M1766,1774L1634,1999L1984,2048Z" fill="#8578b0" stroke="#8578b0" stroke-width="1.51"/><path d="M1634,1999L1908,2227L1984,2048Z" fill="#7762a4" stroke="#7762a4" stroke-width="1.51"/><path d="M1866,1318L1691,1547L1985,1542Z" fill="#a399c5" stroke="#a399c5" stroke-width="1.51"/><path d="M1691,1547L1862,1752L1985,1542Z" fill="#9b8ebf" stroke="#9b8ebf" stroke-width="1.51"/><path d="M1623,2264L1736,2549L1908,2227Z" fill="#6c4f98" stroke="#6c4f98" stroke-width="1.51"/><path d="M1886,548L1694,641L1956,697Z" fill="#c0989d" stroke="#c0989d" stroke-width="1.51"/><path d="M1634,1999L1623,2264L1908,2227Z" fill="#7c67a8" stroke="#7c67a8" stroke-width="1.51"/><path d="M1691,1547L1766,1774L1862,1752Z" fill="#9b92c1" stroke="#9b92c1" stroke-width="1.51"/><path d="M1774,1256L1691,1547L1866,1318Z" fill="#aea8cd" stroke="#aea8cd" stroke-width="1.51"/><path d="M1728,-76L1723,231L1867,157Z" fill="#b9796a" stroke="#b9796a" stroke-width="1.51"/><path d="M1693,490L1694,641L1886,548Z" fill="#c89f99" stroke="#c89f99" stroke-width="1.51"/><path d="M1337,2495L1079,2568L1596,2580Z" fill="#80669a" stroke="#80669a" stroke-width="1.51"/><path d="M1694,641L1359,876L1706,1025Z" fill="#d3c1c8" stroke="#d3c1c8" stroke-width="1.51"/><path d="M1574,313L1693,490L1723,231Z" fill="#cd9786" stroke="#cd9786" stroke-width="1.51"/><path d="M1491,-133L1574,313L1723,231Z" fill="#cb8d76" stroke="#cb8d76" stroke-width="1.51"/><path d="M1491,-133L1723,231L1728,-76Z" fill="#bd7f6f" stroke="#bd7f6f" stroke-width="1.51"/><path d="M1694,-400L1491,-133L1728,-76Z" fill="#ae7269" stroke="#ae7269" stroke-width="1.51"/><path d="M1623,2264L1596,2580L1736,2549Z" fill="#6e5193" stroke="#6e5193" stroke-width="1.51"/><path d="M1510,1944L1634,1999L1766,1774Z" fill="#968bbc" stroke="#968bbc" stroke-width="1.51"/><path d="M1691,1547L1445,1638L1766,1774Z" fill="#aaa2cc" stroke="#aaa2cc" stroke-width="1.51"/><path d="M1420,1532L1691,1547L1774,1256Z" fill="#b8b3d4" stroke="#b8b3d4" stroke-width="1.51"/><path d="M1433,1163L1420,1532L1774,1256Z" fill="#c6c3de" stroke="#c6c3de" stroke-width="1.51"/><path d="M1706,1025L1433,1163L1774,1256Z" fill="#c6c1db" stroke="#c6c1db" stroke-width="1.51"/><path d="M1445,1638L1510,1944L1766,1774Z" fill="#a69dc8" stroke="#a69dc8" stroke-width="1.51"/><path d="M1368,633L1359,876L1694,641Z" fill="#dec5bf" stroke="#dec5bf" stroke-width="1.51"/><path d="M1574,313L1511,387L1693,490Z" fill="#d5a390" stroke="#d5a390" stroke-width="1.51"/><path d="M1511,387L1368,633L1693,490Z" fill="#ddb3a1" stroke="#ddb3a1" stroke-width="1.51"/><path d="M1693,490L1368,633L1694,641Z" fill="#d7b2a8" stroke="#d7b2a8" stroke-width="1.51"/><path d="M1434,-448L1491,-133L1694,-400Z" fill="#ac756c" stroke="#ac756c" stroke-width="1.51"/><path d="M1359,876L1433,1163L1706,1025Z" fill="#d7d0df" stroke="#d7d0df" stroke-width="1.51"/><path d="M1337,2495L1596,2580L1623,2264Z" fill="#7b5f9e" stroke="#7b5f9e" stroke-width="1.51"/><path d="M1382,2221L1623,2264L1634,1999Z" fill="#8c78b4" stroke="#8c78b4" stroke-width="1.51"/><path d="M1420,1532L1445,1638L1691,1547Z" fill="#b9b4d7" stroke="#b9b4d7" stroke-width="1.51"/><path d="M1491,-133L1197,41L1574,313Z" fill="#d5997c" stroke="#d5997c" stroke-width="1.51"/><path d="M1197,41L1185,208L1574,313Z" fill="#e3a985" stroke="#e3a985" stroke-width="1.51"/><path d="M1382,2221L1337,2495L1623,2264Z" fill="#886cae" stroke="#886cae" stroke-width="1.51"/><path d="M1510,1944L1382,2221L1634,1999Z" fill="#9688bc" stroke="#9688bc" stroke-width="1.51"/><path d="M1434,-448L1284,-267L1491,-133Z" fill="#b98473" stroke="#b98473" stroke-width="1.51"/><path d="M1445,1638L1304,1720L1510,1944Z" fill="#b3acd2" stroke="#b3acd2" stroke-width="1.51"/><path d="M1185,208L1511,387L1574,313Z" fill="#dfab8e" stroke="#dfab8e" stroke-width="1.51"/><path d="M1296,2142L1382,2221L1510,1944Z" fill="#9b8cbe" stroke="#9b8cbe" stroke-width="1.51"/><path d="M1304,1720L1329,1935L1510,1944Z" fill="#ada6cd" stroke="#ada6cd" stroke-width="1.51"/><path d="M1178,1296L1282,1537L1420,1532Z" fill="#d0d0e6" stroke="#d0d0e6" stroke-width="1.51"/><path d="M1359,876L1281,917L1433,1163Z" fill="#e1dbe2" stroke="#e1dbe2" stroke-width="1.51"/><path d="M1178,1296L1420,1532L1433,1163Z" fill="#d4d3e8" stroke="#d4d3e8" stroke-width="1.51"/><path d="M1329,1935L1296,2142L1510,1944Z" fill="#a299c5" stroke="#a299c5" stroke-width="1.51"/><path d="M1185,208L1271,432L1511,387Z" fill="#e8b796" stroke="#e8b796" stroke-width="1.51"/><path d="M1271,432L1368,633L1511,387Z" fill="#e7bea4" stroke="#e7bea4" stroke-width="1.51"/><path d="M1284,-267L1197,41L1491,-133Z" fill="#cd9379" stroke="#cd9379" stroke-width="1.51"/><path d="M378,2526L272,2580L1079,2568Z" fill="#9a6779" stroke="#9a6779" stroke-width="1.51"/><path d="M1278,650L1359,876L1368,633Z" fill="#e7d1c5" stroke="#e7d1c5" stroke-width="1.51"/><path d="M876,-374L1284,-267L1434,-448Z" fill="#be8e78" stroke="#be8e78" stroke-width="1.51"/><path d="M1420,1532L1282,1537L1445,1638Z" fill="#c3c0dd" stroke="#c3c0dd" stroke-width="1.51"/><path d="M1282,1537L1304,1720L1445,1638Z" fill="#c1bedc" stroke="#c1bedc" stroke-width="1.51"/><path d="M1281,917L1178,1296L1433,1163Z" fill="#e1e1ee" stroke="#e1e1ee" stroke-width="1.51"/><path d="M1080,-103L1197,41L1284,-267Z" fill="#d69d7d" stroke="#d69d7d" stroke-width="1.51"/><path d="M1296,2142L1043,2181L1337,2495Z" fill="#9b83bc" stroke="#9b83bc" stroke-width="1.51"/><path d="M1278,650L1281,917L1359,876Z" fill="#e8d9d2" stroke="#e8d9d2" stroke-width="1.51"/><path d="M1271,432L1278,650L1368,633Z" fill="#eccab3" stroke="#eccab3" stroke-width="1.51"/><path d="M1296,2142L1337,2495L1382,2221Z" fill="#9279b6" stroke="#9279b6" stroke-width="1.51"/><path d="M1043,2181L1079,2568L1337,2495Z" fill="#957baf" stroke="#957baf" stroke-width="1.51"/><path d="M950,997L1178,1296L1281,917Z" fill="#eeedf2" stroke="#eeedf2" stroke-width="1.51"/><path d="M976,1948L1043,2181L1296,2142Z" fill="#aea0c9" stroke="#aea0c9" stroke-width="1.51"/><path d="M1304,1720L976,1948L1329,1935Z" fill="#b8b3d4" stroke="#b8b3d4" stroke-width="1.51"/><path d="M976,1948L1296,2142L1329,1935Z" fill="#ada5cc" stroke="#ada5cc" stroke-width="1.51"/><path d="M1278,650L871,821L1281,917Z" fill="#f2e3d5" stroke="#f2e3d5" stroke-width="1.51"/><path d="M1282,1537L959,1658L1304,1720Z" fill="#ccc9e2" stroke="#ccc9e2" stroke-width="1.51"/><path d="M959,1658L976,1948L1304,1720Z" fill="#c7c2dd" stroke="#c7c2dd" stroke-width="1.51"/><path d="M1271,432L860,388L1278,650Z" fill="#f6d0ac" stroke="#f6d0ac" stroke-width="1.51"/><path d="M871,821L950,997L1281,917Z" fill="#f6ece3" stroke="#f6ece3" stroke-width="1.51"/><path d="M1178,1296L960,1561L1282,1537Z" fill="#d8d9ea" stroke="#d8d9ea" stroke-width="1.51"/><path d="M960,1561L959,1658L1282,1537Z" fill="#d5d3e7" stroke="#d5d3e7" stroke-width="1.51"/><path d="M860,388L815,451L1278,650Z" fill="#fed8b0" stroke="#fed8b0" stroke-width="1.51"/><path d="M876,-374L1080,-103L1284,-267Z" fill="#cf9a7c" stroke="#cf9a7c" stroke-width="1.51"/><path d="M1185,208L953,281L1271,432Z" fill="#f1bf97" stroke="#f1bf97" stroke-width="1.51"/><path d="M815,451L871,821L1278,650Z" fill="#fce1c4" stroke="#fce1c4" stroke-width="1.51"/><path d="M953,281L860,388L1271,432Z" fill="#f8caa0" stroke="#f8caa0" stroke-width="1.51"/><path d="M950,997L864,1175L1178,1296Z" fill="#f1f1f5" stroke="#f1f1f5" stroke-width="1.51"/><path d="M953,281L1185,208L1197,41Z" fill="#eeb589" stroke="#eeb589" stroke-width="1.51"/><path d="M1080,-103L953,281L1197,41Z" fill="#e9b085" stroke="#e9b085" stroke-width="1.51"/><path d="M718,2392L378,2526L1079,2568Z" fill="#9d7591" stroke="#9d7591" stroke-width="1.51"/><path d="M864,1175L960,1561L1178,1296Z" fill="#e8e8f1" stroke="#e8e8f1" stroke-width="1.51"/><path d="M-196,-421L58,-412L108,-417Z" fill="#a7560b" stroke="#a7560b" stroke-width="1.51"/><path d="M1043,2181L718,2392L1079,2568Z" fill="#a285b5" stroke="#a285b5" stroke-width="1.51"/><path d="M766,-60L953,281L1080,-103Z" fill="#ecb283" stroke="#ecb283" stroke-width="1.51"/><path d="M876,-374L766,-60L1080,-103Z" fill="#dba27a" stroke="#dba27a" stroke-width="1.51"/><path d="M815,451L676,653L871,821Z" fill="#fedcb0" stroke="#fedcb0" stroke-width="1.51"/><path d="M766,-60L702,204L953,281Z" fill="#f3b478" stroke="#f3b478" stroke-width="1.51"/><path d="M864,1175L720,1215L960,1561Z" fill="#ede7e6" stroke="#ede7e6" stroke-width="1.51"/><path d="M959,1658L741,1734L976,1948Z" fill="#cfc5d7" stroke="#cfc5d7" stroke-width="1.51"/><path d="M976,1948L650,2182L1043,2181Z" fill="#b6a2c4" stroke="#b6a2c4" stroke-width="1.51"/><path d="M650,2182L718,2392L1043,2181Z" fill="#ae8cb2" stroke="#ae8cb2" stroke-width="1.51"/><path d="M720,1215L623,1545L960,1561Z" fill="#e8dcd9" stroke="#e8dcd9" stroke-width="1.51"/><path d="M741,1734L625,1888L976,1948Z" fill="#cbb9c6" stroke="#cbb9c6" stroke-width="1.51"/><path d="M625,1888L650,2182L976,1948Z" fill="#bfaab9" stroke="#bfaab9" stroke-width="1.51"/><path d="M741,1734L959,1658L960,1561Z" fill="#d9d1de" stroke="#d9d1de" stroke-width="1.51"/><path d="M623,1545L741,1734L960,1561Z" fill="#ddcfd2" stroke="#ddcfd2" stroke-width="1.51"/><path d="M871,821L688,892L950,997Z" fill="#fcebd5" stroke="#fcebd5" stroke-width="1.51"/><path d="M702,204L860,388L953,281Z" fill="#f9c28b" stroke="#f9c28b" stroke-width="1.51"/><path d="M688,892L864,1175L950,997Z" fill="#faf0e2" stroke="#faf0e2" stroke-width="1.51"/><path d="M625,1888L572,1967L650,2182Z" fill="#c1a1a8" stroke="#c1a1a8" stroke-width="1.51"/><path d="M688,892L720,1215L864,1175Z" fill="#faeedf" stroke="#faeedf" stroke-width="1.51"/><path d="M676,653L688,892L871,821Z" fill="#fee3bf" stroke="#fee3bf" stroke-width="1.51"/><path d="M568,-249L766,-60L876,-374Z" fill="#d59966" stroke="#d59966" stroke-width="1.51"/><path d="M627,-421L568,-249L876,-374Z" fill="#ca905f" stroke="#ca905f" stroke-width="1.51"/><path d="M702,204L815,451L860,388Z" fill="#fbc68c" stroke="#fbc68c" stroke-width="1.51"/><path d="M702,204L359,404L815,451Z" fill="#fbbe78" stroke="#fbbe78" stroke-width="1.51"/><path d="M359,404L676,653L815,451Z" fill="#ffc988" stroke="#ffc988" stroke-width="1.51"/><path d="M650,2182L538,2273L718,2392Z" fill="#af809d" stroke="#af809d" stroke-width="1.51"/><path d="M688,892L439,1284L720,1215Z" fill="#fbe4cc" stroke="#fbe4cc" stroke-width="1.51"/><path d="M439,1284L623,1545L720,1215Z" fill="#f0d9c5" stroke="#f0d9c5" stroke-width="1.51"/><path d="M443,91L702,204L766,-60Z" fill="#eda861" stroke="#eda861" stroke-width="1.51"/><path d="M568,-249L443,91L766,-60Z" fill="#e19a57" stroke="#e19a57" stroke-width="1.51"/><path d="M676,653L462,718L688,892Z" fill="#ffd9a9" stroke="#ffd9a9" stroke-width="1.51"/><path d="M411,826L439,1284L688,892Z" fill="#ffdcb5" stroke="#ffdcb5" stroke-width="1.51"/><path d="M623,1545L625,1888L741,1734Z" fill="#d8c1c0" stroke="#d8c1c0" stroke-width="1.51"/><path d="M445,1553L360,1741L623,1545Z" fill="#e2bdaa" stroke="#e2bdaa" stroke-width="1.51"/><path d="M623,1545L360,1741L625,1888Z" fill="#dab7ae" stroke="#dab7ae" stroke-width="1.51"/><path d="M359,404L462,718L676,653Z" fill="#ffc783" stroke="#ffc783" stroke-width="1.51"/><path d="M538,2273L378,2526L718,2392Z" fill="#a77085" stroke="#a77085" stroke-width="1.51"/><path d="M462,718L411,826L688,892Z" fill="#ffd6a2" stroke="#ffd6a2" stroke-width="1.51"/><path d="M443,91L359,404L702,204Z" fill="#f4aa58" stroke="#f4aa58" stroke-width="1.51"/><path d="M439,1284L445,1553L623,1545Z" fill="#ebcab4" stroke="#ebcab4" stroke-width="1.51"/><path d="M306,232L359,404L443,91Z" fill="#f1a145" stroke="#f1a145" stroke-width="1.51"/><path d="M335,31L443,91L568,-249Z" fill="#e19242" stroke="#e19242" stroke-width="1.51"/><path d="M572,1967L538,2273L650,2182Z" fill="#b98f9d" stroke="#b98f9d" stroke-width="1.51"/><path d="M411,826L209,1151L439,1284Z" fill="#fed2a7" stroke="#fed2a7" stroke-width="1.51"/><path d="M360,1741L572,1967L625,1888Z" fill="#cfa9a3" stroke="#cfa9a3" stroke-width="1.51"/><path d="M108,-417L568,-249L627,-421Z" fill="#c67e3b" stroke="#c67e3b" stroke-width="1.51"/><path d="M439,1284L305,1414L445,1553Z" fill="#efc6a6" stroke="#efc6a6" stroke-width="1.51"/><path d="M143,2064L258,2352L538,2273Z" fill="#b26e75" stroke="#b26e75" stroke-width="1.51"/><path d="M258,2352L378,2526L538,2273Z" fill="#a86772" stroke="#a86772" stroke-width="1.51"/><path d="M163,-137L335,31L568,-249Z" fill="#d88533" stroke="#d88533" stroke-width="1.51"/><path d="M108,-417L163,-137L568,-249Z" fill="#c77627" stroke="#c77627" stroke-width="1.51"/><path d="M143,2064L538,2273L572,1967Z" fill="#bd8889" stroke="#bd8889" stroke-width="1.51"/><path d="M360,1741L143,2064L572,1967Z" fill="#c9978a" stroke="#c9978a" stroke-width="1.51"/><path d="M135,1073L209,1151L411,826Z" fill="#fac694" stroke="#fac694" stroke-width="1.51"/><path d="M277,1705L360,1741L445,1553Z" fill="#deb099" stroke="#deb099" stroke-width="1.51"/><path d="M111,707L411,826L462,718Z" fill="#fcc381" stroke="#fcc381" stroke-width="1.51"/><path d="M359,404L111,707L462,718Z" fill="#fab86c" stroke="#fab86c" stroke-width="1.51"/><path d="M194,384L111,707L359,404Z" fill="#f5a951" stroke="#f5a951" stroke-width="1.51"/><path d="M335,31L306,232L443,91Z" fill="#ea9639" stroke="#ea9639" stroke-width="1.51"/><path d="M305,1414L277,1705L445,1553Z" fill="#e5b69b" stroke="#e5b69b" stroke-width="1.51"/><path d="M209,1151L305,1414L439,1284Z" fill="#f3c69f" stroke="#f3c69f" stroke-width="1.51"/><path d="M277,1705L143,2064L360,1741Z" fill="#cd9684" stroke="#cd9684" stroke-width="1.51"/><path d="M111,707L135,1073L411,826Z" fill="#f8be81" stroke="#f8be81" stroke-width="1.51"/><path d="M306,232L194,384L359,404Z" fill="#f2a246" stroke="#f2a246" stroke-width="1.51"/><path d="M258,2352L272,2580L378,2526Z" fill="#9c575e" stroke="#9c575e" stroke-width="1.51"/><path d="M-70,1830L143,2064L277,1705Z" fill="#c58671" stroke="#c58671" stroke-width="1.51"/><path d="M209,1151L18,1259L305,1414Z" fill="#efb88e" stroke="#efb88e" stroke-width="1.51"/><path d="M-118,1562L277,1705L305,1414Z" fill="#dda484" stroke="#dda484" stroke-width="1.51"/><path d="M-102,226L306,232L335,31Z" fill="#e4881f" stroke="#e4881f" stroke-width="1.51"/><path d="M163,-137L-102,226L335,31Z" fill="#d87b14" stroke="#d87b14" stroke-width="1.51"/><path d="M18,1259L-118,1562L305,1414Z" fill="#e2a783" stroke="#e2a783" stroke-width="1.51"/><path d="M-102,226L194,384L306,232Z" fill="#e78e2a" stroke="#e78e2a" stroke-width="1.51"/><path d="M-17,765L57,1062L111,707Z" fill="#eeae6f" stroke="#eeae6f" stroke-width="1.51"/><path d="M111,707L57,1062L135,1073Z" fill="#f3b57c" stroke="#f3b57c" stroke-width="1.51"/><path d="M143,2064L-104,2219L258,2352Z" fill="#aa5c60" stroke="#aa5c60" stroke-width="1.51"/><path d="M258,2352L-118,2399L272,2580Z" fill="#994a50" stroke="#994a50" stroke-width="1.51"/><path d="M-118,2399L-236,2502L272,2580Z" fill="#893b44" stroke="#893b44" stroke-width="1.51"/><path d="M-118,1562L-70,1830L277,1705Z" fill="#cd8f77" stroke="#cd8f77" stroke-width="1.51"/><path d="M-104,2219L-118,2399L258,2352Z" fill="#9a4956" stroke="#9a4956" stroke-width="1.51"/><path d="M108,-417L58,-412L163,-137Z" fill="#b9630e" stroke="#b9630e" stroke-width="1.51"/><path d="M-154,-186L-102,226L163,-137Z" fill="#c5690b" stroke="#c5690b" stroke-width="1.51"/><path d="M-172,522L111,707L194,384Z" fill="#ea9c47" stroke="#ea9c47" stroke-width="1.51"/><path d="M135,1073L18,1259L209,1151Z" fill="#f2b889" stroke="#f2b889" stroke-width="1.51"/><path d="M58,-412L-154,-186L163,-137Z" fill="#b8600b" stroke="#b8600b" stroke-width="1.51"/><path d="M-102,226L-172,522L194,384Z" fill="#df8a30" stroke="#df8a30" stroke-width="1.51"/><path d="M57,1062L18,1259L135,1073Z" fill="#efb588" stroke="#efb588" stroke-width="1.51"/><path d="M-70,1830L-145,1970L143,2064Z" fill="#b37368" stroke="#b37368" stroke-width="1.51"/><path d="M-172,522L-17,765L111,707Z" fill="#e79e57" stroke="#e79e57" stroke-width="1.51"/><path d="M-145,1970L-104,2219L143,2064Z" fill="#a86361" stroke="#a86361" stroke-width="1.51"/><path d="M-17,765L-207,913L57,1062Z" fill="#e7a873" stroke="#e7a873" stroke-width="1.51"/><path d="M-245,365L-172,522L-102,226Z" fill="#d37f2c" stroke="#d37f2c" stroke-width="1.51"/><path d="M-207,913L18,1259L57,1062Z" fill="#e8af84" stroke="#e8af84" stroke-width="1.51"/><path d="M-196,-421L-154,-186L58,-412Z" fill="#a75309" stroke="#a75309" stroke-width="1.51"/><path d="M-154,-186L-237,-179L-102,226Z" fill="#ba5e08" stroke="#ba5e08" stroke-width="1.51"/><path d="M-172,522L-264,666L-17,765Z" fill="#dc9451" stroke="#dc9451" stroke-width="1.51"/><path d="M-207,913L-396,1080L18,1259Z" fill="#dca37f" stroke="#dca37f" stroke-width="1.51"/><path d="M-396,1080L-349,1414L18,1259Z" fill="#cf9a7c" stroke="#cf9a7c" stroke-width="1.51"/><path d="M-349,1414L-118,1562L18,1259Z" fill="#d0977b" stroke="#d0977b" stroke-width="1.51"/><path d="M-237,-179L-299,247L-102,226Z" fill="#bf660c" stroke="#bf660c" stroke-width="1.51"/><path d="M-264,666L-207,913L-17,765Z" fill="#dd9b62" stroke="#dd9b62" stroke-width="1.51"/><path d="M-145,1970L-289,1995L-104,2219Z" fill="#9f5c5d" stroke="#9f5c5d" stroke-width="1.51"/><path d="M-289,1995L-145,1970L-70,1830Z" fill="#aa6b64" stroke="#aa6b64" stroke-width="1.51"/><path d="M-353,1606L-289,1995L-70,1830Z" fill="#ad7269" stroke="#ad7269" stroke-width="1.51"/><path d="M-118,1562L-353,1606L-70,1830Z" fill="#be8271" stroke="#be8271" stroke-width="1.51"/><path d="M-196,-421L-237,-179L-154,-186Z" fill="#a65007" stroke="#a65007" stroke-width="1.51"/><path d="M-373,2111L-236,2502L-118,2399Z" fill="#85374d" stroke="#85374d" stroke-width="1.51"/><path d="M-289,1995L-373,2111L-104,2219Z" fill="#945259" stroke="#945259" stroke-width="1.51"/><path d="M-373,2111L-118,2399L-104,2219Z" fill="#8f4354" stroke="#8f4354" stroke-width="1.51"/><path d="M-299,247L-245,365L-102,226Z" fill="#ca7420" stroke="#ca7420" stroke-width="1.51"/><path d="M-349,1414L-353,1606L-118,1562Z" fill="#bc8774" stroke="#bc8774" stroke-width="1.51"/><path d="M-245,365L-264,666L-172,522Z" fill="#d3873e" stroke="#d3873e" stroke-width="1.51"/><path d="M-264,666L-396,1080L-207,913Z" fill="#d1976a" stroke="#d1976a" stroke-width="1.51"/><path d="M-299,247L-264,666L-245,365Z" fill="#cc7e31" stroke="#cc7e31" stroke-width="1.51"/><path d="M-353,1606L-373,2111L-289,1995Z" fill="#9b6462" stroke="#9b6462" stroke-width="1.51"/><path d="M-299,247L-396,1080L-264,666Z" fill="#cc8b50" stroke="#cc8b50" stroke-width="1.51"/><path d="M-396,1080L-353,1606L-349,1414Z" fill="#bd8d78" stroke="#bd8d78" stroke-width="1.51"/><path d="M-396,1080L-373,2111L-353,1606Z" fill="#ae7c70" stroke="#ae7c70" stroke-width="1.51"/></svg>