<svg xmlns="http://www.w3.org/2000/svg" width="1920" height="2160"><path d="M-196,-421L108,-417L627,-421Z" fill="#d14c37" stroke="#d14c37" stroke-width="1.51"/><path d="M-196,-421L627,-421L1434,-448Z" fill="#d77c53" stroke="#d77c53" stroke-width="1.51"/><path d="M1079,2568L272,2580L1596,2580Z" fill="#a298b1" stroke="#a298b1" stroke-width="1.51"/><path d="M1736,2549L1596,2580L1930,2561Z" fill="#5d78b8" stroke="#5d78b8" stroke-width="1.51"/><path d="M1434,-448L1694,-400L2233,-411Z" fill="#a76c77" stroke="#a76c77" stroke-width="1.51"/><path d="M2104,-191L2138,-45L2233,-411Z" fill="#9e4e69" stroke="#9e4e69" stroke-width="1.51"/><path d="M2097,-253L2104,-191L2233,-411Z" fill="#994d69" stroke="#994d69" stroke-width="1.51"/><path d="M2138,-45L2189,188L2233,-411Z" fill="#a4526b" stroke="#a4526b" stroke-width="1.51"/><path d="M2189,188L2225,523L2233,-411Z" fill="#aa5d74" stroke="#aa5d74" stroke-width="1.51"/><path d="M2044,892L2227,947L2238,668Z" fill="#aba0a5" stroke="#aba0a5" stroke-width="1.51"/><path d="M2233,-411L2225,523L2238,668Z" fill="#ac697b" stroke="#ac697b" stroke-width="1.51"/><path d="M1862,1752L1984,2048L2241,1625Z" fill="#74a3cd" stroke="#74a3cd" stroke-width="1.51"/><path d="M2167,2184L2118,2533L2267,2056Z" fill="#476db1" stroke="#476db1" stroke-width="1.51"/><path d="M2241,1625L1984,2048L2267,2056Z" fill="#658cc2" stroke="#658cc2" stroke-width="1.51"/><path d="M2227,947L2044,892L2292,1270Z" fill="#a8a8b3" stroke="#a8a8b3" stroke-width="1.51"/><path d="M2044,892L1866,1318L2292,1270Z" fill="#a8b7c3" stroke="#a8b7c3" stroke-width="1.51"/><path d="M2233,-411L2238,668L2292,1270Z" fill="#ab7e89" stroke="#ab7e89" stroke-width="1.51"/><path d="M1866,1318L2241,1399L2292,1270Z" fill="#9aacce" stroke="#9aacce" stroke-width="1.51"/><path d="M2238,668L2227,947L2292,1270Z" fill="#a79caa" stroke="#a79caa" stroke-width="1.51"/><path d="M2241,1625L2267,2056L2292,1270Z" fill="#7a91c6" stroke="#7a91c6" stroke-width="1.51"/><path d="M2241,1399L2241,1625L2292,1270Z" fill="#8e9acc" stroke="#8e9acc" stroke-width="1.51"/><path d="M627,-421L876,-374L1434,-448Z" fill="#dd916f" stroke="#dd916f" stroke-width="1.51"/><path d="M2189,188L1886,548L2225,523Z" fill="#b2898a" stroke="#b2898a" stroke-width="1.51"/><path d="M1985,1542L1862,1752L2241,1625Z" fill="#84add3" stroke="#84add3" stroke-width="1.51"/><path d="M1985,1542L2241,1625L2241,1399Z" fill="#89a3cf" stroke="#89a3cf" stroke-width="1.51"/><path d="M1984,2048L2167,2184L2267,2056Z" fill="#5581bb" stroke="#5581bb" stroke-width="1.51"/><path d="M1908,2227L2118,2533L2167,2184Z" fill="#4775b4" stroke="#4775b4" stroke-width="1.51"/><path d="M1867,157L1886,548L2189,188Z" fill="#bb8b89" stroke="#bb8b89" stroke-width="1.51"/><path d="M1694,-400L2097,-253L2233,-411Z" fill="#9c596f" stroke="#9c596f" stroke-width="1.51"/><path d="M2225,523L1956,697L2238,668Z" fill="#ae9698" stroke="#ae9698" stroke-width="1.51"/><path d="M1956,697L2044,892L2238,668Z" fill="#afa7a4" stroke="#afa7a4" stroke-width="1.51"/><path d="M1866,1318L1985,1542L2241,1399Z" fill="#97b6d8" stroke="#97b6d8" stroke-width="1.51"/><path d="M1886,548L1956,697L2225,523Z" fill="#b6a09a" stroke="#b6a09a" stroke-width="1.51"/><path d="M2138,-45L1867,157L2189,188Z" fill="#b2707b" stroke="#b2707b" stroke-width="1.51"/><path d="M1774,1256L1866,1318L2044,892Z" fill="#b4cacb" stroke="#b4cacb" stroke-width="1.51"/><path d="M1908,2227L1930,2561L2118,2533Z" fill="#4b70b2" stroke="#4b70b2" stroke-width="1.51"/><path d="M1984,2048L1908,2227L2167,2184Z" fill="#5788be" stroke="#5788be" stroke-width="1.51"/><path d="M1706,1025L1774,1256L2044,892Z" fill="#bdd0c6" stroke="#bdd0c6" stroke-width="1.51"/><path d="M2104,-191L1728,-76L2138,-45Z" fill="#b16873" stroke="#b16873" stroke-width="1.51"/><path d="M1728,-76L1867,157L2138,-45Z" fill="#bb7a7d" stroke="#bb7a7d" stroke-width="1.51"/><path d="M2097,-253L1728,-76L2104,-191Z" fill="#ae6572" stroke="#ae6572" stroke-width="1.51"/><path d="M1694,-400L1728,-76L2097,-253Z" fill="#b27077" stroke="#b27077" stroke-width="1.51"/><path d="M1867,157L1723,231L1886,548Z" fill="#c69c91" stroke="#c69c91" stroke-width="1.51"/><path d="M1956,697L1706,1025L2044,892Z" fill="#bbc0b5" stroke="#bbc0b5" stroke-width="1.51"/><path d="M1723,231L1693,490L1886,548Z" fill="#cbac99" stroke="#cbac99" stroke-width="1.51"/><path d="M1908,2227L1736,2549L1930,2561Z" fill="#567cb9" stroke="#567cb9" stroke-width="1.51"/><path d="M1694,641L1706,1025L1956,697Z" fill="#c4c7b4" stroke="#c4c7b4" stroke-width="1.51"/><path d="M1862,1752L1766,1774L1984,2048Z" fill="#7cb0d3" stroke="#7cb0d3" stroke-width="1.51"/><path d="M1766,1774L1634,1999L1984,2048Z" fill="#7ab1d4" stroke="#7ab1d4" stroke-width="1.51"/><path d="M1634,1999L1908,2227L1984,2048Z" fill="#6ba0ca" stroke="#6ba0ca" stroke-width="1.51"/><path d="M1866,1318L1691,1547L1985,1542Z" fill="#a1c7e0" stroke="#a1c7e0" stroke-width="1.51"/><path d="M1691,1547L1862,1752L1985,1542Z" fill="#94c2dc" stroke="#94c2dc" stroke-width="1.51"/><path d="M1623,2264L1736,2549L1908,2227Z" fill="#628fc3" stroke="#628fc3" stroke-width="1.51"/><path d="M1886,548L1694,641L1956,697Z" fill="#c2b6a5" stroke="#c2b6a5" stroke-width="1.51"/><path d="M1634,1999L1623,2264L1908,2227Z" fill="#70a3cd" stroke="#70a3cd" stroke-width="1.51"/><path d="M1691,1547L1766,1774L1862,1752Z" fill="#93c5de" stroke="#93c5de" stroke-width="1.51"/><path d="M1774,1256L1691,1547L1866,1318Z" fill="#afd1e5" stroke="#afd1e5" stroke-width="1.51"/><path d="M1728,-76L1723,231L1867,157Z" fill="#c98e87" stroke="#c98e87" stroke-width="1.51"/><path d="M1693,490L1694,641L1886,548Z" fill="#cab9a4" stroke="#cab9a4" stroke-width="1.51"/><path d="M1337,2495L1079,2568L1596,2580Z" fill="#8792c7" stroke="#8792c7" stroke-width="1.51"/><path d="M1694,641L1359,876L1706,1025Z" fill="#d5dbc0" stroke="#d5dbc0" stroke-width="1.51"/><path d="M1574,313L1693,490L1723,231Z" fill="#d4ad99" stroke="#d4ad99" stroke-width="1.51"/><path d="M1491,-133L1574,313L1723,231Z" fill="#d99e91" stroke="#d99e91" stroke-width="1.51"/><path d="M1491,-133L1723,231L1728,-76Z" fill="#d09087" stroke="#d09087" stroke-width="1.51"/><path d="M1694,-400L1491,-133L1728,-76Z" fill="#c6827f" stroke="#c6827f" stroke-width="1.51"/><path d="M1623,2264L1596,2580L1736,2549Z" fill="#6a8ac1" stroke="#6a8ac1" stroke-width="1.51"/><path d="M1510,1944L1634,1999L1766,1774Z" fill="#8dc0dc" stroke="#8dc0dc" stroke-width="1.51"/><path d="M1691,1547L1445,1638L1766,1774Z" fill="#a4d1e5" stroke="#a4d1e5" stroke-width="1.51"/><path d="M1420,1532L1691,1547L1774,1256Z" fill="#b7dbeb" stroke="#b7dbeb" stroke-width="1.51"/><path d="M1433,1163L1420,1532L1774,1256Z" fill="#c8e6e9" stroke="#c8e6e9" stroke-width="1.51"/><path d="M1706,1025L1433,1163L1774,1256Z" fill="#cae1d6" stroke="#cae1d6" stroke-width="1.51"/><path d="M1445,1638L1510,1944L1766,1774Z" fill="#9ecee3" stroke="#9ecee3" stroke-width="1.51"/><path d="M1368,633L1359,876L1694,641Z" fill="#e0daba" stroke="#e0daba" stroke-width="1.51"/><path d="M1574,313L1511,387L1693,490Z" fill="#dab89f" stroke="#dab89f" stroke-width="1.51"/><path d="M1511,387L1368,633L1693,490Z" fill="#dec7a8" stroke="#dec7a8" stroke-width="1.51"/><path d="M1693,490L1368,633L1694,641Z" fill="#d8c9ac" stroke="#d8c9ac" stroke-width="1.51"/><path d="M1434,-448L1491,-133L1694,-400Z" fill="#c48381" stroke="#c48381" stroke-width="1.51"/><path d="M1359,876L1433,1163L1706,1025Z" fill="#dbead1" stroke="#dbead1" stroke-width="1.51"/><path d="M1337,2495L1596,2580L1623,2264Z" fill="#7896c8" stroke="#7896c8" stroke-width="1.51"/><path d="M1382,2221L1623,2264L1634,1999Z" fill="#82b1d5" stroke="#82b1d5" stroke-width="1.51"/><path d="M1420,1532L1445,1638L1691,1547Z" fill="#b6deec" stroke="#b6deec" stroke-width="1.51"/><path d="M1491,-133L1197,41L1574,313Z" fill="#e5a392" stroke="#e5a392" stroke-width="1.51"/><path d="M1197,41L1185,208L1574,313Z" fill="#f0b19a" stroke="#f0b19a" stroke-width="1.51"/><path d="M1382,2221L1337,2495L1623,2264Z" fill="#82a6d0" stroke="#82a6d0" stroke-width="1.51"/><path d="M1510,1944L1382,2221L1634,1999Z" fill="#8dbedb" stroke="#8dbedb" stroke-width="1.51"/><path d="M1434,-448L1284,-267L1491,-133Z" fill="#d38c85" stroke="#d38c85" stroke-width="1.51"/><path d="M1445,1638L1304,1720L1510,1944Z" fill="#afd8e9" stroke="#afd8e9" stroke-width="1.51"/><path d="M1185,208L1511,387L1574,313Z" fill="#e8b89e" stroke="#e8b89e" stroke-width="1.51"/><path d="M1296,2142L1382,2221L1510,1944Z" fill="#95bedc" stroke="#95bedc" stroke-width="1.51"/><path d="M1304,1720L1329,1935L1510,1944Z" fill="#a9d3e5" stroke="#a9d3e5" stroke-width="1.51"/><path d="M1178,1296L1282,1537L1420,1532Z" fill="#d5edf5" stroke="#d5edf5" stroke-width="1.51"/><path d="M1359,876L1281,917L1433,1163Z" fill="#e7eed1" stroke="#e7eed1" stroke-width="1.51"/><path d="M1178,1296L1420,1532L1433,1163Z" fill="#daeff0" stroke="#daeff0" stroke-width="1.51"/><path d="M1329,1935L1296,2142L1510,1944Z" fill="#9ec8e0" stroke="#9ec8e0" stroke-width="1.51"/><path d="M1185,208L1271,432L1511,387Z" fill="#f0c0a3" stroke="#f0c0a3" stroke-width="1.51"/><path d="M1271,432L1368,633L1511,387Z" fill="#eaccaa" stroke="#eaccaa" stroke-width="1.51"/><path d="M1284,-267L1197,41L1491,-133Z" fill="#e6988a" stroke="#e6988a" stroke-width="1.51"/><path d="M378,2526L272,2580L1079,2568Z" fill="#a78391" stroke="#a78391" stroke-width="1.51"/><path d="M1278,650L1359,876L1368,633Z" fill="#ebe0be" stroke="#ebe0be" stroke-width="1.51"/><path d="M876,-374L1284,-267L1434,-448Z" fill="#da8f85" stroke="#da8f85" stroke-width="1.51"/><path d="M1420,1532L1282,1537L1445,1638Z" fill="#c4e4f0" stroke="#c4e4f0" stroke-width="1.51"/><path d="M1282,1537L1304,1720L1445,1638Z" fill="#c2e3ef" stroke="#c2e3ef" stroke-width="1.51"/><path d="M1281,917L1178,1296L1433,1163Z" fill="#e9f5df" stroke="#e9f5df" stroke-width="1.51"/><path d="M1080,-103L1197,41L1284,-267Z" fill="#ee9d87" stroke="#ee9d87" stroke-width="1.51"/><path d="M1296,2142L1043,2181L1337,2495Z" fill="#9ab5d6" stroke="#9ab5d6" stroke-width="1.51"/><path d="M1278,650L1281,917L1359,876Z" fill="#ede8c5" stroke="#ede8c5" stroke-width="1.51"/><path d="M1271,432L1278,650L1368,633Z" fill="#f0d6b3" stroke="#f0d6b3" stroke-width="1.51"/><path d="M1296,2142L1337,2495L1382,2221Z" fill="#8eafd5" stroke="#8eafd5" stroke-width="1.51"/><path d="M1043,2181L1079,2568L1337,2495Z" fill="#9ba7c8" stroke="#9ba7c8" stroke-width="1.51"/><path d="M950,997L1178,1296L1281,917Z" fill="#f7fad0" stroke="#f7fad0" stroke-width="1.51"/><path d="M976,1948L1043,2181L1296,2142Z" fill="#b0c9d3" stroke="#b0c9d3" stroke-width="1.51"/><path d="M1304,1720L976,1948L1329,1935Z" fill="#badae6" stroke="#badae6" stroke-width="1.51"/><path d="M976,1948L1296,2142L1329,1935Z" fill="#aecfe0" stroke="#aecfe0" stroke-width="1.51"/><path d="M1278,650L871,821L1281,917Z" fill="#f7ecbc" stroke="#f7ecbc" stroke-width="1.51"/><path d="M1282,1537L959,1658L1304,1720Z" fill="#cfe9ec" stroke="#cfe9ec" stroke-width="1.51"/><path d="M959,1658L976,1948L1304,1720Z" fill="#cae3dd" stroke="#cae3dd" stroke-width="1.51"/><path d="M1271,432L860,388L1278,650Z" fill="#fad4a3" stroke="#fad4a3" stroke-width="1.51"/><path d="M871,821L950,997L1281,917Z" fill="#fcf5ba" stroke="#fcf5ba" stroke-width="1.51"/><path d="M1178,1296L960,1561L1282,1537Z" fill="#e0f1ec" stroke="#e0f1ec" stroke-width="1.51"/><path d="M960,1561L959,1658L1282,1537Z" fill="#dbeee2" stroke="#dbeee2" stroke-width="1.51"/><path d="M860,388L815,451L1278,650Z" fill="#ffd894" stroke="#ffd894" stroke-width="1.51"/><path d="M876,-374L1080,-103L1284,-267Z" fill="#e8987a" stroke="#e8987a" stroke-width="1.51"/><path d="M1185,208L953,281L1271,432Z" fill="#fbc399" stroke="#fbc399" stroke-width="1.51"/><path d="M815,451L871,821L1278,650Z" fill="#ffe4a0" stroke="#ffe4a0" stroke-width="1.51"/><path d="M953,281L860,388L1271,432Z" fill="#ffcb91" stroke="#ffcb91" stroke-width="1.51"/><path d="M950,997L864,1175L1178,1296Z" fill="#fafcca" stroke="#fafcca" stroke-width="1.51"/><path d="M953,281L1185,208L1197,41Z" fill="#fcb68f" stroke="#fcb68f" stroke-width="1.51"/><path d="M1080,-103L953,281L1197,41Z" fill="#f9af86" stroke="#f9af86" stroke-width="1.51"/><path d="M718,2392L378,2526L1079,2568Z" fill="#a895a0" stroke="#a895a0" stroke-width="1.51"/><path d="M864,1175L960,1561L1178,1296Z" fill="#f1f9dc" stroke="#f1f9dc" stroke-width="1.51"/><path d="M-196,-421L58,-412L108,-417Z" fill="#c8352e" stroke="#c8352e" stroke-width="1.51"/><path d="M1043,2181L718,2392L1079,2568Z" fill="#a9aeb7" stroke="#a9aeb7" stroke-width="1.51"/><path d="M766,-60L953,281L1080,-103Z" fill="#fbad76" stroke="#fbad76" stroke-width="1.51"/><path d="M876,-374L766,-60L1080,-103Z" fill="#f19b6a" stroke="#f19b6a" stroke-width="1.51"/><path d="M815,451L676,653L871,821Z" fill="#ffdb8e" stroke="#ffdb8e" stroke-width="1.51"/><path d="M766,-60L702,204L953,281Z" fill="#fdae71" stroke="#fdae71" stroke-width="1.51"/><path d="M864,1175L720,1215L960,1561Z" fill="#f5f4cc" stroke="#f5f4cc" stroke-width="1.51"/><path d="M959,1658L741,1734L976,1948Z" fill="#d2e1cc" stroke="#d2e1cc" stroke-width="1.51"/><path d="M976,1948L650,2182L1043,2181Z" fill="#b9c7bf" stroke="#b9c7bf" stroke-width="1.51"/><path d="M650,2182L718,2392L1043,2181Z" fill="#b1b4b1" stroke="#b1b4b1" stroke-width="1.51"/><path d="M720,1215L623,1545L960,1561Z" fill="#eeecca" stroke="#eeecca" stroke-width="1.51"/><path d="M741,1734L625,1888L976,1948Z" fill="#cdd6c0" stroke="#cdd6c0" stroke-width="1.51"/><path d="M625,1888L650,2182L976,1948Z" fill="#c2c9b8" stroke="#c2c9b8" stroke-width="1.51"/><path d="M741,1734L959,1658L960,1561Z" fill="#dce9d0" stroke="#dce9d0" stroke-width="1.51"/><path d="M623,1545L741,1734L960,1561Z" fill="#e1e5c7" stroke="#e1e5c7" stroke-width="1.51"/><path d="M871,821L688,892L950,997Z" fill="#ffefa7" stroke="#ffefa7" stroke-width="1.51"/><path d="M702,204L860,388L953,281Z" fill="#ffbf7c" stroke="#ffbf7c" stroke-width="1.51"/><path d="M688,892L864,1175L950,997Z" fill="#fff5b0" stroke="#fff5b0" stroke-width="1.51"/><path d="M625,1888L572,1967L650,2182Z" fill="#c3bfac" stroke="#c3bfac" stroke-width="1.51"/><path d="M688,892L720,1215L864,1175Z" fill="#fff3af" stroke="#fff3af" stroke-width="1.51"/><path d="M676,653L688,892L871,821Z" fill="#ffe496" stroke="#ffe496" stroke-width="1.51"/><path d="M568,-249L766,-60L876,-374Z" fill="#ea8f5d" stroke="#ea8f5d" stroke-width="1.51"/><path d="M627,-421L568,-249L876,-374Z" fill="#df8659" stroke="#df8659" stroke-width="1.51"/><path d="M702,204L815,451L860,388Z" fill="#ffc17b" stroke="#ffc17b" stroke-width="1.51"/><path d="M702,204L359,404L815,451Z" fill="#fdb76e" stroke="#fdb76e" stroke-width="1.51"/><path d="M359,404L676,653L815,451Z" fill="#fec575" stroke="#fec575" stroke-width="1.51"/><path d="M650,2182L538,2273L718,2392Z" fill="#b1a6a2" stroke="#b1a6a2" stroke-width="1.51"/><path d="M688,892L439,1284L720,1215Z" fill="#fee9a7" stroke="#fee9a7" stroke-width="1.51"/><path d="M439,1284L623,1545L720,1215Z" fill="#f6e2ba" stroke="#f6e2ba" stroke-width="1.51"/><path d="M443,91L702,204L766,-60Z" fill="#f89e61" stroke="#f89e61" stroke-width="1.51"/><path d="M568,-249L443,91L766,-60Z" fill="#f28e55" stroke="#f28e55" stroke-width="1.51"/><path d="M676,653L462,718L688,892Z" fill="#fed888" stroke="#fed888" stroke-width="1.51"/><path d="M411,826L439,1284L688,892Z" fill="#ffdc93" stroke="#ffdc93" stroke-width="1.51"/><path d="M623,1545L625,1888L741,1734Z" fill="#d9d9bb" stroke="#d9d9bb" stroke-width="1.51"/><path d="M445,1553L360,1741L623,1545Z" fill="#e4ceae" stroke="#e4ceae" stroke-width="1.51"/><path d="M623,1545L360,1741L625,1888Z" fill="#daceb0" stroke="#daceb0" stroke-width="1.51"/><path d="M359,404L462,718L676,653Z" fill="#fec173" stroke="#fec173" stroke-width="1.51"/><path d="M538,2273L378,2526L718,2392Z" fill="#ad9296" stroke="#ad9296" stroke-width="1.51"/><path d="M462,718L411,826L688,892Z" fill="#fed485" stroke="#fed485" stroke-width="1.51"/><path d="M443,91L359,404L702,204Z" fill="#fc9f5e" stroke="#fc9f5e" stroke-width="1.51"/><path d="M439,1284L445,1553L623,1545Z" fill="#efd7b3" stroke="#efd7b3" stroke-width="1.51"/><path d="M306,232L359,404L443,91Z" fill="#fa9354" stroke="#fa9354" stroke-width="1.51"/><path d="M335,31L443,91L568,-249Z" fill="#f2834b" stroke="#f2834b" stroke-width="1.51"/><path d="M572,1967L538,2273L650,2182Z" fill="#bbb0a4" stroke="#bbb0a4" stroke-width="1.51"/><path d="M411,826L209,1151L439,1284Z" fill="#ffd28d" stroke="#ffd28d" stroke-width="1.51"/><path d="M360,1741L572,1967L625,1888Z" fill="#d0c2a9" stroke="#d0c2a9" stroke-width="1.51"/><path d="M108,-417L568,-249L627,-421Z" fill="#da6e45" stroke="#da6e45" stroke-width="1.51"/><path d="M439,1284L305,1414L445,1553Z" fill="#f4ceab" stroke="#f4ceab" stroke-width="1.51"/><path d="M143,2064L258,2352L538,2273Z" fill="#b88e8c" stroke="#b88e8c" stroke-width="1.51"/><path d="M258,2352L378,2526L538,2273Z" fill="#b0868a" stroke="#b0868a" stroke-width="1.51"/><path d="M163,-137L335,31L568,-249Z" fill="#ed7241" stroke="#ed7241" stroke-width="1.51"/><path d="M108,-417L163,-137L568,-249Z" fill="#df613d" stroke="#df613d" stroke-width="1.51"/><path d="M143,2064L538,2273L572,1967Z" fill="#c0a598" stroke="#c0a598" stroke-width="1.51"/><path d="M360,1741L143,2064L572,1967Z" fill="#cdaf9b" stroke="#cdaf9b" stroke-width="1.51"/><path d="M135,1073L209,1151L411,826Z" fill="#ffc482" stroke="#ffc482" stroke-width="1.51"/><path d="M277,1705L360,1741L445,1553Z" fill="#e1c1a4" stroke="#e1c1a4" stroke-width="1.51"/><path d="M111,707L411,826L462,718Z" fill="#febd72" stroke="#febd72" stroke-width="1.51"/><path d="M359,404L111,707L462,718Z" fill="#fdb067" stroke="#fdb067" stroke-width="1.51"/><path d="M194,384L111,707L359,404Z" fill="#fb9d5a" stroke="#fb9d5a" stroke-width="1.51"/><path d="M335,31L306,232L443,91Z" fill="#f7874e" stroke="#f7874e" stroke-width="1.51"/><path d="M305,1414L277,1705L445,1553Z" fill="#eac3a5" stroke="#eac3a5" stroke-width="1.51"/><path d="M209,1151L305,1414L439,1284Z" fill="#faca9e" stroke="#faca9e" stroke-width="1.51"/><path d="M277,1705L143,2064L360,1741Z" fill="#d5ab98" stroke="#d5ab98" stroke-width="1.51"/><path d="M111,707L135,1073L411,826Z" fill="#ffb875" stroke="#ffb875" stroke-width="1.51"/><path d="M306,232L194,384L359,404Z" fill="#fa9554" stroke="#fa9554" stroke-width="1.51"/><path d="M258,2352L272,2580L378,2526Z" fill="#ac7280" stroke="#ac7280" stroke-width="1.51"/><path d="M-70,1830L143,2064L277,1705Z" fill="#d29a8e" stroke="#d29a8e" stroke-width="1.51"/><path d="M209,1151L18,1259L305,1414Z" fill="#fabb95" stroke="#fabb95" stroke-width="1.51"/><path d="M-118,1562L277,1705L305,1414Z" fill="#eaaf99" stroke="#eaaf99" stroke-width="1.51"/><path d="M-102,226L306,232L335,31Z" fill="#f67546" stroke="#f67546" stroke-width="1.51"/><path d="M163,-137L-102,226L335,31Z" fill="#ef643e" stroke="#ef643e" stroke-width="1.51"/><path d="M18,1259L-118,1562L305,1414Z" fill="#f3ad98" stroke="#f3ad98" stroke-width="1.51"/><path d="M-102,226L194,384L306,232Z" fill="#f77c49" stroke="#f77c49" stroke-width="1.51"/><path d="M-17,765L57,1062L111,707Z" fill="#fba66a" stroke="#fba66a" stroke-width="1.51"/><path d="M111,707L57,1062L135,1073Z" fill="#feb074" stroke="#feb074" stroke-width="1.51"/><path d="M143,2064L-104,2219L258,2352Z" fill="#b87a80" stroke="#b87a80" stroke-width="1.51"/><path d="M258,2352L-118,2399L272,2580Z" fill="#ad6578" stroke="#ad6578" stroke-width="1.51"/><path d="M-118,2399L-236,2502L272,2580Z" fill="#a4506d" stroke="#a4506d" stroke-width="1.51"/><path d="M-118,1562L-70,1830L277,1705Z" fill="#dc9e8f" stroke="#dc9e8f" stroke-width="1.51"/><path d="M-104,2219L-118,2399L258,2352Z" fill="#ae6876" stroke="#ae6876" stroke-width="1.51"/><path d="M108,-417L58,-412L163,-137Z" fill="#d74734" stroke="#d74734" stroke-width="1.51"/><path d="M-154,-186L-102,226L163,-137Z" fill="#e44c32" stroke="#e44c32" stroke-width="1.51"/><path d="M-172,522L111,707L194,384Z" fill="#f78e53" stroke="#f78e53" stroke-width="1.51"/><path d="M135,1073L18,1259L209,1151Z" fill="#feb786" stroke="#feb786" stroke-width="1.51"/><path d="M58,-412L-154,-186L163,-137Z" fill="#d84130" stroke="#d84130" stroke-width="1.51"/><path d="M-102,226L-172,522L194,384Z" fill="#f17845" stroke="#f17845" stroke-width="1.51"/><path d="M57,1062L18,1259L135,1073Z" fill="#fdb381" stroke="#fdb381" stroke-width="1.51"/><path d="M-70,1830L-145,1970L143,2064Z" fill="#c78883" stroke="#c78883" stroke-width="1.51"/><path d="M-172,522L-17,765L111,707Z" fill="#f59358" stroke="#f59358" stroke-width="1.51"/><path d="M-145,1970L-104,2219L143,2064Z" fill="#bc7b7d" stroke="#bc7b7d" stroke-width="1.51"/><path d="M-17,765L-207,913L57,1062Z" fill="#f7a168" stroke="#f7a168" stroke-width="1.51"/><path d="M-245,365L-172,522L-102,226Z" fill="#e96a3e" stroke="#e96a3e" stroke-width="1.51"/><path d="M-207,913L18,1259L57,1062Z" fill="#f9aa75" stroke="#f9aa75" stroke-width="1.51"/><path d="M-196,-421L-154,-186L58,-412Z" fill="#ca2d2a" stroke="#ca2d2a" stroke-width="1.51"/><path d="M-154,-186L-237,-179L-102,226Z" fill="#dc3c2b" stroke="#dc3c2b" stroke-width="1.51"/><path d="M-172,522L-264,666L-17,765Z" fill="#ef8750" stroke="#ef8750" stroke-width="1.51"/><path d="M-207,913L-396,1080L18,1259Z" fill="#f19e6f" stroke="#f19e6f" stroke-width="1.51"/><path d="M-396,1080L-349,1414L18,1259Z" fill="#e8987e" stroke="#e8987e" stroke-width="1.51"/><path d="M-349,1414L-118,1562L18,1259Z" fill="#ea9a8a" stroke="#ea9a8a" stroke-width="1.51"/><path d="M-237,-179L-299,247L-102,226Z" fill="#de4832" stroke="#de4832" stroke-width="1.51"/><path d="M-264,666L-207,913L-17,765Z" fill="#f09159" stroke="#f09159" stroke-width="1.51"/><path d="M-145,1970L-289,1995L-104,2219Z" fill="#b87277" stroke="#b87277" stroke-width="1.51"/><path d="M-289,1995L-145,1970L-70,1830Z" fill="#c27d7c" stroke="#c27d7c" stroke-width="1.51"/><path d="M-353,1606L-289,1995L-70,1830Z" fill="#c5827f" stroke="#c5827f" stroke-width="1.51"/><path d="M-118,1562L-353,1606L-70,1830Z" fill="#d68e84" stroke="#d68e84" stroke-width="1.51"/><path d="M-196,-421L-237,-179L-154,-186Z" fill="#ca2727" stroke="#ca2727" stroke-width="1.51"/><path d="M-373,2111L-236,2502L-118,2399Z" fill="#9f536b" stroke="#9f536b" stroke-width="1.51"/><path d="M-289,1995L-373,2111L-104,2219Z" fill="#ad6974" stroke="#ad6974" stroke-width="1.51"/><path d="M-373,2111L-118,2399L-104,2219Z" fill="#a95f6f" stroke="#a95f6f" stroke-width="1.51"/><path d="M-299,247L-245,365L-102,226Z" fill="#e35d3a" stroke="#e35d3a" stroke-width="1.51"/><path d="M-349,1414L-353,1606L-118,1562Z" fill="#d78e86" stroke="#d78e86" stroke-width="1.51"/><path d="M-245,365L-264,666L-172,522Z" fill="#e77646" stroke="#e77646" stroke-width="1.51"/><path d="M-264,666L-396,1080L-207,913Z" fill="#e68f60" stroke="#e68f60" stroke-width="1.51"/><path d="M-299,247L-264,666L-245,365Z" fill="#e26b41" stroke="#e26b41" stroke-width="1.51"/><path d="M-353,1606L-373,2111L-289,1995Z" fill="#b4767b" stroke="#b4767b" stroke-width="1.51"/><path d="M-299,247L-396,1080L-264,666Z" fill="#e17e50" stroke="#e17e50" stroke-width="1.51"/><path d="M-396,1080L-353,1606L-349,1414Z" fill="#d88f87" stroke="#d88f87" stroke-width="1.51"/><path d="M-396,1080L-373,2111L-353,1606Z" fill="#c88684" stroke="#c88684" stroke-width="1.51"/></svg>