<svg xmlns="http://www.w3.org/2000/svg" width="1920" height="2160"><path d="M-196,-421L108,-417L627,-421Z" fill="#a43e3b" stroke="#a43e3b" stroke-width="1.51"/><path d="M-196,-421L627,-421L1434,-448Z" fill="#b56e67" stroke="#b56e67" stroke-width="1.51"/><path d="M1079,2568L272,2580L1596,2580Z" fill="#858fae" stroke="#858fae" stroke-width="1.51"/><path d="M1736,2549L1596,2580L1930,2561Z" fill="#326799" stroke="#326799" stroke-width="1.51"/><path d="M1434,-448L1694,-400L2233,-411Z" fill="#75566c" stroke="#75566c" stroke-width="1.51"/><path d="M2104,-191L2138,-45L2233,-411Z" fill="#7b405e" stroke="#7b405e" stroke-width="1.51"/><path d="M2097,-253L2104,-191L2233,-411Z" fill="#733d5e" stroke="#733d5e" stroke-width="1.51"/><path d="M2138,-45L2189,188L2233,-411Z" fill="#854460" stroke="#854460" stroke-width="1.51"/><path d="M2189,188L2225,523L2233,-411Z" fill="#8a5168" stroke="#8a5168" stroke-width="1.51"/><path d="M2044,892L2227,947L2238,668Z" fill="#9897b3" stroke="#9897b3" stroke-width="1.51"/><path d="M2233,-411L2225,523L2238,668Z" fill="#8f5f72" stroke="#8f5f72" stroke-width="1.51"/><path d="M1862,1752L1984,2048L2241,1625Z" fill="#558fc2" stroke="#558fc2" stroke-width="1.51"/><path d="M2167,2184L2118,2533L2267,2056Z" fill="#205f9f" stroke="#205f9f" stroke-width="1.51"/><path d="M2241,1625L1984,2048L2267,2056Z" fill="#3f7ab0" stroke="#3f7ab0" stroke-width="1.51"/><path d="M2227,947L2044,892L2292,1270Z" fill="#929ebf" stroke="#929ebf" stroke-width="1.51"/><path d="M2044,892L1866,1318L2292,1270Z" fill="#94aad1" stroke="#94aad1" stroke-width="1.51"/><path d="M2233,-411L2238,668L2292,1270Z" fill="#947586" stroke="#947586" stroke-width="1.51"/><path d="M1866,1318L2241,1399L2292,1270Z" fill="#849fc7" stroke="#849fc7" stroke-width="1.51"/><path d="M2238,668L2227,947L2292,1270Z" fill="#8f93b1" stroke="#8f93b1" stroke-width="1.51"/><path d="M2241,1625L2267,2056L2292,1270Z" fill="#5b82ac" stroke="#5b82ac" stroke-width="1.51"/><path d="M2241,1399L2241,1625L2292,1270Z" fill="#748db3" stroke="#748db3" stroke-width="1.51"/><path d="M627,-421L876,-374L1434,-448Z" fill="#b88183" stroke="#b88183" stroke-width="1.51"/><path d="M2189,188L1886,548L2225,523Z" fill="#9f7d92" stroke="#9f7d92" stroke-width="1.51"/><path d="M1985,1542L1862,1752L2241,1625Z" fill="#6a9bc9" stroke="#6a9bc9" stroke-width="1.51"/><path d="M1985,1542L2241,1625L2241,1399Z" fill="#7194c0" stroke="#7194c0" stroke-width="1.51"/><path d="M1984,2048L2167,2184L2267,2056Z" fill="#2c6fac" stroke="#2c6fac" stroke-width="1.51"/><path d="M1908,2227L2118,2533L2167,2184Z" fill="#2266ab" stroke="#2266ab" stroke-width="1.51"/><path d="M1867,157L1886,548L2189,188Z" fill="#a27b8d" stroke="#a27b8d" stroke-width="1.51"/><path d="M1694,-400L2097,-253L2233,-411Z" fill="#734767" stroke="#734767" stroke-width="1.51"/><path d="M2225,523L1956,697L2238,668Z" fill="#9d8ba3" stroke="#9d8ba3" stroke-width="1.51"/><path d="M1956,697L2044,892L2238,668Z" fill="#a09cb8" stroke="#a09cb8" stroke-width="1.51"/><path d="M1866,1318L1985,1542L2241,1399Z" fill="#83a5cf" stroke="#83a5cf" stroke-width="1.51"/><path d="M1886,548L1956,697L2225,523Z" fill="#a593a9" stroke="#a593a9" stroke-width="1.51"/><path d="M2138,-45L1867,157L2189,188Z" fill="#97617a" stroke="#97617a" stroke-width="1.51"/><path d="M1774,1256L1866,1318L2044,892Z" fill="#9cbad8" stroke="#9cbad8" stroke-width="1.51"/><path d="M1908,2227L1930,2561L2118,2533Z" fill="#23619f" stroke="#23619f" stroke-width="1.51"/><path d="M1984,2048L1908,2227L2167,2184Z" fill="#2f76b4" stroke="#2f76b4" stroke-width="1.51"/><path d="M1706,1025L1774,1256L2044,892Z" fill="#a4bfda" stroke="#a4bfda" stroke-width="1.51"/><path d="M2104,-191L1728,-76L2138,-45Z" fill="#925670" stroke="#925670" stroke-width="1.51"/><path d="M1728,-76L1867,157L2138,-45Z" fill="#9b677a" stroke="#9b677a" stroke-width="1.51"/><path d="M2097,-253L1728,-76L2104,-191Z" fill="#8d526d" stroke="#8d526d" stroke-width="1.51"/><path d="M1694,-400L1728,-76L2097,-253Z" fill="#8a5a6f" stroke="#8a5a6f" stroke-width="1.51"/><path d="M1867,157L1723,231L1886,548Z" fill="#aa8a94" stroke="#aa8a94" stroke-width="1.51"/><path d="M1956,697L1706,1025L2044,892Z" fill="#a6b2c9" stroke="#a6b2c9" stroke-width="1.51"/><path d="M1723,231L1693,490L1886,548Z" fill="#b29ba1" stroke="#b29ba1" stroke-width="1.51"/><path d="M1908,2227L1736,2549L1930,2561Z" fill="#2a6aa3" stroke="#2a6aa3" stroke-width="1.51"/><path d="M1694,641L1706,1025L1956,697Z" fill="#aeb8c8" stroke="#aeb8c8" stroke-width="1.51"/><path d="M1862,1752L1766,1774L1984,2048Z" fill="#5598c6" stroke="#5598c6" stroke-width="1.51"/><path d="M1766,1774L1634,1999L1984,2048Z" fill="#4d98c6" stroke="#4d98c6" stroke-width="1.51"/><path d="M1634,1999L1908,2227L1984,2048Z" fill="#3d88be" stroke="#3d88be" stroke-width="1.51"/><path d="M1866,1318L1691,1547L1985,1542Z" fill="#85b3d5" stroke="#85b3d5" stroke-width="1.51"/><path d="M1691,1547L1862,1752L1985,1542Z" fill="#75acd1" stroke="#75acd1" stroke-width="1.51"/><path d="M1623,2264L1736,2549L1908,2227Z" fill="#3b7cb4" stroke="#3b7cb4" stroke-width="1.51"/><path d="M1886,548L1694,641L1956,697Z" fill="#aca6b4" stroke="#aca6b4" stroke-width="1.51"/><path d="M1634,1999L1623,2264L1908,2227Z" fill="#4a8dc1" stroke="#4a8dc1" stroke-width="1.51"/><path d="M1691,1547L1766,1774L1862,1752Z" fill="#72aed2" stroke="#72aed2" stroke-width="1.51"/><path d="M1774,1256L1691,1547L1866,1318Z" fill="#94bedb" stroke="#94bedb" stroke-width="1.51"/><path d="M1728,-76L1723,231L1867,157Z" fill="#a77a85" stroke="#a77a85" stroke-width="1.51"/><path d="M1693,490L1694,641L1886,548Z" fill="#b4a8af" stroke="#b4a8af" stroke-width="1.51"/><path d="M1337,2495L1079,2568L1596,2580Z" fill="#6a85ac" stroke="#6a85ac" stroke-width="1.51"/><path d="M1694,641L1359,876L1706,1025Z" fill="#c4cdd5" stroke="#c4cdd5" stroke-width="1.51"/><path d="M1574,313L1693,490L1723,231Z" fill="#bb9c9e" stroke="#bb9c9e" stroke-width="1.51"/><path d="M1491,-133L1574,313L1723,231Z" fill="#bb8c8f" stroke="#bb8c8f" stroke-width="1.51"/><path d="M1491,-133L1723,231L1728,-76Z" fill="#b07d84" stroke="#b07d84" stroke-width="1.51"/><path d="M1694,-400L1491,-133L1728,-76Z" fill="#a26d79" stroke="#a26d79" stroke-width="1.51"/><path d="M1623,2264L1596,2580L1736,2549Z" fill="#4679aa" stroke="#4679aa" stroke-width="1.51"/><path d="M1510,1944L1634,1999L1766,1774Z" fill="#69a9cf" stroke="#69a9cf" stroke-width="1.51"/><path d="M1691,1547L1445,1638L1766,1774Z" fill="#88bcda" stroke="#88bcda" stroke-width="1.51"/><path d="M1420,1532L1691,1547L1774,1256Z" fill="#9fc8e1" stroke="#9fc8e1" stroke-width="1.51"/><path d="M1433,1163L1420,1532L1774,1256Z" fill="#b5d5e7" stroke="#b5d5e7" stroke-width="1.51"/><path d="M1706,1025L1433,1163L1774,1256Z" fill="#b4d1e4" stroke="#b4d1e4" stroke-width="1.51"/><path d="M1445,1638L1510,1944L1766,1774Z" fill="#81b8d8" stroke="#81b8d8" stroke-width="1.51"/><path d="M1368,633L1359,876L1694,641Z" fill="#d1cece" stroke="#d1cece" stroke-width="1.51"/><path d="M1574,313L1511,387L1693,490Z" fill="#c4a8a6" stroke="#c4a8a6" stroke-width="1.51"/><path d="M1511,387L1368,633L1693,490Z" fill="#cdb8b4" stroke="#cdb8b4" stroke-width="1.51"/><path d="M1693,490L1368,633L1694,641Z" fill="#c6babb" stroke="#c6babb" stroke-width="1.51"/><path d="M1434,-448L1491,-133L1694,-400Z" fill="#9b6f7a" stroke="#9b6f7a" stroke-width="1.51"/><path d="M1359,876L1433,1163L1706,1025Z" fill="#cadce7" stroke="#cadce7" stroke-width="1.51"/><path d="M1337,2495L1596,2580L1623,2264Z" fill="#5a86b2" stroke="#5a86b2" stroke-width="1.51"/><path d="M1382,2221L1623,2264L1634,1999Z" fill="#649dca" stroke="#649dca" stroke-width="1.51"/><path d="M1420,1532L1445,1638L1691,1547Z" fill="#9fcbe1" stroke="#9fcbe1" stroke-width="1.51"/><path d="M1491,-133L1197,41L1574,313Z" fill="#c99390" stroke="#c99390" stroke-width="1.51"/><path d="M1197,41L1185,208L1574,313Z" fill="#d8a39b" stroke="#d8a39b" stroke-width="1.51"/><path d="M1382,2221L1337,2495L1623,2264Z" fill="#6a96c4" stroke="#6a96c4" stroke-width="1.51"/><path d="M1510,1944L1382,2221L1634,1999Z" fill="#6da7cf" stroke="#6da7cf" stroke-width="1.51"/><path d="M1434,-448L1284,-267L1491,-133Z" fill="#ad787f" stroke="#ad787f" stroke-width="1.51"/><path d="M1445,1638L1304,1720L1510,1944Z" fill="#95c4de" stroke="#95c4de" stroke-width="1.51"/><path d="M1185,208L1511,387L1574,313Z" fill="#d2a9a3" stroke="#d2a9a3" stroke-width="1.51"/><path d="M1296,2142L1382,2221L1510,1944Z" fill="#7aaad1" stroke="#7aaad1" stroke-width="1.51"/><path d="M1304,1720L1329,1935L1510,1944Z" fill="#8fbedb" stroke="#8fbedb" stroke-width="1.51"/><path d="M1178,1296L1282,1537L1420,1532Z" fill="#c5dfec" stroke="#c5dfec" stroke-width="1.51"/><path d="M1359,876L1281,917L1433,1163Z" fill="#dae3e8" stroke="#dae3e8" stroke-width="1.51"/><path d="M1178,1296L1420,1532L1433,1163Z" fill="#c9e0ed" stroke="#c9e0ed" stroke-width="1.51"/><path d="M1329,1935L1296,2142L1510,1944Z" fill="#80b3d5" stroke="#80b3d5" stroke-width="1.51"/><path d="M1185,208L1271,432L1511,387Z" fill="#dcb3aa" stroke="#dcb3aa" stroke-width="1.51"/><path d="M1271,432L1368,633L1511,387Z" fill="#dbbfb6" stroke="#dbbfb6" stroke-width="1.51"/><path d="M1284,-267L1197,41L1491,-133Z" fill="#c98687" stroke="#c98687" stroke-width="1.51"/><path d="M378,2526L272,2580L1079,2568Z" fill="#8e7c8e" stroke="#8e7c8e" stroke-width="1.51"/><path d="M1278,650L1359,876L1368,633Z" fill="#dfd6d2" stroke="#dfd6d2" stroke-width="1.51"/><path d="M876,-374L1284,-267L1434,-448Z" fill="#b47e82" stroke="#b47e82" stroke-width="1.51"/><path d="M1420,1532L1282,1537L1445,1638Z" fill="#afd3e6" stroke="#afd3e6" stroke-width="1.51"/><path d="M1282,1537L1304,1720L1445,1638Z" fill="#add2e6" stroke="#add2e6" stroke-width="1.51"/><path d="M1281,917L1178,1296L1433,1163Z" fill="#dbe9f1" stroke="#dbe9f1" stroke-width="1.51"/><path d="M1080,-103L1197,41L1284,-267Z" fill="#d48d8a" stroke="#d48d8a" stroke-width="1.51"/><path d="M1296,2142L1043,2181L1337,2495Z" fill="#87a5cf" stroke="#87a5cf" stroke-width="1.51"/><path d="M1278,650L1281,917L1359,876Z" fill="#e2dedd" stroke="#e2dedd" stroke-width="1.51"/><path d="M1271,432L1278,650L1368,633Z" fill="#e2cbc2" stroke="#e2cbc2" stroke-width="1.51"/><path d="M1296,2142L1337,2495L1382,2221Z" fill="#799fcc" stroke="#799fcc" stroke-width="1.51"/><path d="M1043,2181L1079,2568L1337,2495Z" fill="#849bc1" stroke="#849bc1" stroke-width="1.51"/><path d="M950,997L1178,1296L1281,917Z" fill="#ebf1f4" stroke="#ebf1f4" stroke-width="1.51"/><path d="M976,1948L1043,2181L1296,2142Z" fill="#97b8d8" stroke="#97b8d8" stroke-width="1.51"/><path d="M1304,1720L976,1948L1329,1935Z" fill="#a2c7e0" stroke="#a2c7e0" stroke-width="1.51"/><path d="M976,1948L1296,2142L1329,1935Z" fill="#93bbda" stroke="#93bbda" stroke-width="1.51"/><path d="M1278,650L871,821L1281,917Z" fill="#efe4de" stroke="#efe4de" stroke-width="1.51"/><path d="M1282,1537L959,1658L1304,1720Z" fill="#bcdae9" stroke="#bcdae9" stroke-width="1.51"/><path d="M959,1658L976,1948L1304,1720Z" fill="#b5d3e6" stroke="#b5d3e6" stroke-width="1.51"/><path d="M1271,432L860,388L1278,650Z" fill="#efcbbc" stroke="#efcbbc" stroke-width="1.51"/><path d="M871,821L950,997L1281,917Z" fill="#f4ede8" stroke="#f4ede8" stroke-width="1.51"/><path d="M1178,1296L960,1561L1282,1537Z" fill="#d0e4ef" stroke="#d0e4ef" stroke-width="1.51"/><path d="M960,1561L959,1658L1282,1537Z" fill="#cae0ec" stroke="#cae0ec" stroke-width="1.51"/><path d="M860,388L815,451L1278,650Z" fill="#f8cfbe" stroke="#f8cfbe" stroke-width="1.51"/><path d="M876,-374L1080,-103L1284,-267Z" fill="#ca8786" stroke="#ca8786" stroke-width="1.51"/><path d="M1185,208L953,281L1271,432Z" fill="#e9b7aa" stroke="#e9b7aa" stroke-width="1.51"/><path d="M815,451L871,821L1278,650Z" fill="#f9dccf" stroke="#f9dccf" stroke-width="1.51"/><path d="M953,281L860,388L1271,432Z" fill="#f2c1b1" stroke="#f2c1b1" stroke-width="1.51"/><path d="M950,997L864,1175L1178,1296Z" fill="#f0f4f6" stroke="#f0f4f6" stroke-width="1.51"/><path d="M953,281L1185,208L1197,41Z" fill="#e7a99e" stroke="#e7a99e" stroke-width="1.51"/><path d="M1080,-103L953,281L1197,41Z" fill="#e3a097" stroke="#e3a097" stroke-width="1.51"/><path d="M718,2392L378,2526L1079,2568Z" fill="#918da6" stroke="#918da6" stroke-width="1.51"/><path d="M864,1175L960,1561L1178,1296Z" fill="#e4edf4" stroke="#e4edf4" stroke-width="1.51"/><path d="M-196,-421L58,-412L108,-417Z" fill="#99262e" stroke="#99262e" stroke-width="1.51"/><path d="M1043,2181L718,2392L1079,2568Z" fill="#94a3c7" stroke="#94a3c7" stroke-width="1.51"/><path d="M766,-60L953,281L1080,-103Z" fill="#e99f94" stroke="#e99f94" stroke-width="1.51"/><path d="M876,-374L766,-60L1080,-103Z" fill="#db8c85" stroke="#db8c85" stroke-width="1.51"/><path d="M815,451L676,653L871,821Z" fill="#fbd5c1" stroke="#fbd5c1" stroke-width="1.51"/><path d="M766,-60L702,204L953,281Z" fill="#eda391" stroke="#eda391" stroke-width="1.51"/><path d="M864,1175L720,1215L960,1561Z" fill="#eaebeb" stroke="#eaebeb" stroke-width="1.51"/><path d="M959,1658L741,1734L976,1948Z" fill="#bed3e1" stroke="#bed3e1" stroke-width="1.51"/><path d="M976,1948L650,2182L1043,2181Z" fill="#a3b8d3" stroke="#a3b8d3" stroke-width="1.51"/><path d="M650,2182L718,2392L1043,2181Z" fill="#9fa8c7" stroke="#9fa8c7" stroke-width="1.51"/><path d="M720,1215L623,1545L960,1561Z" fill="#e2e2e2" stroke="#e2e2e2" stroke-width="1.51"/><path d="M741,1734L625,1888L976,1948Z" fill="#b9c7d4" stroke="#b9c7d4" stroke-width="1.51"/><path d="M625,1888L650,2182L976,1948Z" fill="#aab9cb" stroke="#aab9cb" stroke-width="1.51"/><path d="M741,1734L959,1658L960,1561Z" fill="#ccdce5" stroke="#ccdce5" stroke-width="1.51"/><path d="M623,1545L741,1734L960,1561Z" fill="#d2d9dd" stroke="#d2d9dd" stroke-width="1.51"/><path d="M871,821L688,892L950,997Z" fill="#fbe9de" stroke="#fbe9de" stroke-width="1.51"/><path d="M702,204L860,388L953,281Z" fill="#f3b5a1" stroke="#f3b5a1" stroke-width="1.51"/><path d="M688,892L864,1175L950,997Z" fill="#faeee7" stroke="#faeee7" stroke-width="1.51"/><path d="M625,1888L572,1967L650,2182Z" fill="#adb0bd" stroke="#adb0bd" stroke-width="1.51"/><path d="M688,892L720,1215L864,1175Z" fill="#f9ece5" stroke="#f9ece5" stroke-width="1.51"/><path d="M676,653L688,892L871,821Z" fill="#fddfcd" stroke="#fddfcd" stroke-width="1.51"/><path d="M568,-249L766,-60L876,-374Z" fill="#d38177" stroke="#d38177" stroke-width="1.51"/><path d="M627,-421L568,-249L876,-374Z" fill="#c27870" stroke="#c27870" stroke-width="1.51"/><path d="M702,204L815,451L860,388Z" fill="#f5b8a2" stroke="#f5b8a2" stroke-width="1.51"/><path d="M702,204L359,404L815,451Z" fill="#f4af93" stroke="#f4af93" stroke-width="1.51"/><path d="M359,404L676,653L815,451Z" fill="#fabda0" stroke="#fabda0" stroke-width="1.51"/><path d="M650,2182L538,2273L718,2392Z" fill="#a19bb6" stroke="#a19bb6" stroke-width="1.51"/><path d="M688,892L439,1284L720,1215Z" fill="#f8e1d6" stroke="#f8e1d6" stroke-width="1.51"/><path d="M439,1284L623,1545L720,1215Z" fill="#ebd9d1" stroke="#ebd9d1" stroke-width="1.51"/><path d="M443,91L702,204L766,-60Z" fill="#e8937d" stroke="#e8937d" stroke-width="1.51"/><path d="M568,-249L443,91L766,-60Z" fill="#df806f" stroke="#df806f" stroke-width="1.51"/><path d="M676,653L462,718L688,892Z" fill="#fdd2bb" stroke="#fdd2bb" stroke-width="1.51"/><path d="M411,826L439,1284L688,892Z" fill="#fbd5c3" stroke="#fbd5c3" stroke-width="1.51"/><path d="M623,1545L625,1888L741,1734Z" fill="#c9cccf" stroke="#c9cccf" stroke-width="1.51"/><path d="M445,1553L360,1741L623,1545Z" fill="#d4c1bc" stroke="#d4c1bc" stroke-width="1.51"/><path d="M623,1545L360,1741L625,1888Z" fill="#cac0bf" stroke="#cac0bf" stroke-width="1.51"/><path d="M359,404L462,718L676,653Z" fill="#f9b99b" stroke="#f9b99b" stroke-width="1.51"/><path d="M538,2273L378,2526L718,2392Z" fill="#9b889e" stroke="#9b889e" stroke-width="1.51"/><path d="M462,718L411,826L688,892Z" fill="#fccdb6" stroke="#fccdb6" stroke-width="1.51"/><path d="M443,91L359,404L702,204Z" fill="#ec9579" stroke="#ec9579" stroke-width="1.51"/><path d="M439,1284L445,1553L623,1545Z" fill="#e2cbc3" stroke="#e2cbc3" stroke-width="1.51"/><path d="M306,232L359,404L443,91Z" fill="#e8896b" stroke="#e8896b" stroke-width="1.51"/><path d="M335,31L443,91L568,-249Z" fill="#dc7560" stroke="#dc7560" stroke-width="1.51"/><path d="M572,1967L538,2273L650,2182Z" fill="#a8a3b5" stroke="#a8a3b5" stroke-width="1.51"/><path d="M411,826L209,1151L439,1284Z" fill="#f8c8b6" stroke="#f8c8b6" stroke-width="1.51"/><path d="M360,1741L572,1967L625,1888Z" fill="#bcb2b8" stroke="#bcb2b8" stroke-width="1.51"/><path d="M108,-417L568,-249L627,-421Z" fill="#b95f53" stroke="#b95f53" stroke-width="1.51"/><path d="M439,1284L305,1414L445,1553Z" fill="#e6c3b7" stroke="#e6c3b7" stroke-width="1.51"/><path d="M143,2064L258,2352L538,2273Z" fill="#a38193" stroke="#a38193" stroke-width="1.51"/><path d="M258,2352L378,2526L538,2273Z" fill="#9b7b8e" stroke="#9b7b8e" stroke-width="1.51"/><path d="M163,-137L335,31L568,-249Z" fill="#d46352" stroke="#d46352" stroke-width="1.51"/><path d="M108,-417L163,-137L568,-249Z" fill="#be5147" stroke="#be5147" stroke-width="1.51"/><path d="M143,2064L538,2273L572,1967Z" fill="#ab97a2" stroke="#ab97a2" stroke-width="1.51"/><path d="M360,1741L143,2064L572,1967Z" fill="#b59ea2" stroke="#b59ea2" stroke-width="1.51"/><path d="M135,1073L209,1151L411,826Z" fill="#f4b9a7" stroke="#f4b9a7" stroke-width="1.51"/><path d="M277,1705L360,1741L445,1553Z" fill="#ceb3ad" stroke="#ceb3ad" stroke-width="1.51"/><path d="M111,707L411,826L462,718Z" fill="#f7b59a" stroke="#f7b59a" stroke-width="1.51"/><path d="M359,404L111,707L462,718Z" fill="#f3a789" stroke="#f3a789" stroke-width="1.51"/><path d="M194,384L111,707L359,404Z" fill="#ec9274" stroke="#ec9274" stroke-width="1.51"/><path d="M335,31L306,232L443,91Z" fill="#e17a61" stroke="#e17a61" stroke-width="1.51"/><path d="M305,1414L277,1705L445,1553Z" fill="#d7b6ae" stroke="#d7b6ae" stroke-width="1.51"/><path d="M209,1151L305,1414L439,1284Z" fill="#ebbeb0" stroke="#ebbeb0" stroke-width="1.51"/><path d="M277,1705L143,2064L360,1741Z" fill="#bb9a9c" stroke="#bb9a9c" stroke-width="1.51"/><path d="M111,707L135,1073L411,826Z" fill="#f2af99" stroke="#f2af99" stroke-width="1.51"/><path d="M306,232L194,384L359,404Z" fill="#e8896b" stroke="#e8896b" stroke-width="1.51"/><path d="M258,2352L272,2580L378,2526Z" fill="#906879" stroke="#906879" stroke-width="1.51"/><path d="M-70,1830L143,2064L277,1705Z" fill="#b3878d" stroke="#b3878d" stroke-width="1.51"/><path d="M209,1151L18,1259L305,1414Z" fill="#e7aea3" stroke="#e7aea3" stroke-width="1.51"/><path d="M-118,1562L277,1705L305,1414Z" fill="#d1a09b" stroke="#d1a09b" stroke-width="1.51"/><path d="M-102,226L306,232L335,31Z" fill="#da6852" stroke="#da6852" stroke-width="1.51"/><path d="M163,-137L-102,226L335,31Z" fill="#d05647" stroke="#d05647" stroke-width="1.51"/><path d="M18,1259L-118,1562L305,1414Z" fill="#da9e97" stroke="#da9e97" stroke-width="1.51"/><path d="M-102,226L194,384L306,232Z" fill="#dd7058" stroke="#dd7058" stroke-width="1.51"/><path d="M-17,765L57,1062L111,707Z" fill="#ea9a88" stroke="#ea9a88" stroke-width="1.51"/><path d="M111,707L57,1062L135,1073Z" fill="#eda493" stroke="#eda493" stroke-width="1.51"/><path d="M143,2064L-104,2219L258,2352Z" fill="#9c6a7f" stroke="#9c6a7f" stroke-width="1.51"/><path d="M258,2352L-118,2399L272,2580Z" fill="#8e5a6e" stroke="#8e5a6e" stroke-width="1.51"/><path d="M-118,2399L-236,2502L272,2580Z" fill="#83455d" stroke="#83455d" stroke-width="1.51"/><path d="M-118,1562L-70,1830L277,1705Z" fill="#bf8c8d" stroke="#bf8c8d" stroke-width="1.51"/><path d="M-104,2219L-118,2399L258,2352Z" fill="#925974" stroke="#925974" stroke-width="1.51"/><path d="M108,-417L58,-412L163,-137Z" fill="#ad3837" stroke="#ad3837" stroke-width="1.51"/><path d="M-154,-186L-102,226L163,-137Z" fill="#c13c38" stroke="#c13c38" stroke-width="1.51"/><path d="M-172,522L111,707L194,384Z" fill="#e48269" stroke="#e48269" stroke-width="1.51"/><path d="M135,1073L18,1259L209,1151Z" fill="#eaaa9e" stroke="#eaaa9e" stroke-width="1.51"/><path d="M58,-412L-154,-186L163,-137Z" fill="#b13134" stroke="#b13134" stroke-width="1.51"/><path d="M-102,226L-172,522L194,384Z" fill="#d96a56" stroke="#d96a56" stroke-width="1.51"/><path d="M57,1062L18,1259L135,1073Z" fill="#e9a69b" stroke="#e9a69b" stroke-width="1.51"/><path d="M-70,1830L-145,1970L143,2064Z" fill="#a4737f" stroke="#a4737f" stroke-width="1.51"/><path d="M-172,522L-17,765L111,707Z" fill="#e38672" stroke="#e38672" stroke-width="1.51"/><path d="M-145,1970L-104,2219L143,2064Z" fill="#9c687a" stroke="#9c687a" stroke-width="1.51"/><path d="M-17,765L-207,913L57,1062Z" fill="#e59486" stroke="#e59486" stroke-width="1.51"/><path d="M-245,365L-172,522L-102,226Z" fill="#ce5b4c" stroke="#ce5b4c" stroke-width="1.51"/><path d="M-207,913L18,1259L57,1062Z" fill="#e69c93" stroke="#e69c93" stroke-width="1.51"/><path d="M-196,-421L-154,-186L58,-412Z" fill="#9e1c2a" stroke="#9e1c2a" stroke-width="1.51"/><path d="M-154,-186L-237,-179L-102,226Z" fill="#b82830" stroke="#b82830" stroke-width="1.51"/><path d="M-172,522L-264,666L-17,765Z" fill="#db7868" stroke="#db7868" stroke-width="1.51"/><path d="M-207,913L-396,1080L18,1259Z" fill="#db8e89" stroke="#db8e89" stroke-width="1.51"/><path d="M-396,1080L-349,1414L18,1259Z" fill="#cb8786" stroke="#cb8786" stroke-width="1.51"/><path d="M-349,1414L-118,1562L18,1259Z" fill="#cf8887" stroke="#cf8887" stroke-width="1.51"/><path d="M-237,-179L-299,247L-102,226Z" fill="#ba3737" stroke="#ba3737" stroke-width="1.51"/><path d="M-264,666L-207,913L-17,765Z" fill="#de8375" stroke="#de8375" stroke-width="1.51"/><path d="M-145,1970L-289,1995L-104,2219Z" fill="#945c71" stroke="#945c71" stroke-width="1.51"/><path d="M-289,1995L-145,1970L-70,1830Z" fill="#9f6876" stroke="#9f6876" stroke-width="1.51"/><path d="M-353,1606L-289,1995L-70,1830Z" fill="#a06d79" stroke="#a06d79" stroke-width="1.51"/><path d="M-118,1562L-353,1606L-70,1830Z" fill="#b67b80" stroke="#b67b80" stroke-width="1.51"/><path d="M-196,-421L-237,-179L-154,-186Z" fill="#9e1229" stroke="#9e1229" stroke-width="1.51"/><path d="M-373,2111L-236,2502L-118,2399Z" fill="#7d4363" stroke="#7d4363" stroke-width="1.51"/><path d="M-289,1995L-373,2111L-104,2219Z" fill="#87556d" stroke="#87556d" stroke-width="1.51"/><path d="M-373,2111L-118,2399L-104,2219Z" fill="#894e6b" stroke="#894e6b" stroke-width="1.51"/><path d="M-299,247L-245,365L-102,226Z" fill="#c34d44" stroke="#c34d44" stroke-width="1.51"/><path d="M-349,1414L-353,1606L-118,1562Z" fill="#b37b80" stroke="#b37b80" stroke-width="1.51"/><path d="M-245,365L-264,666L-172,522Z" fill="#cd6858" stroke="#cd6858" stroke-width="1.51"/><path d="M-264,666L-396,1080L-207,913Z" fill="#cb8079" stroke="#cb8079" stroke-width="1.51"/><path d="M-299,247L-264,666L-245,365Z" fill="#c35c4e" stroke="#c35c4e" stroke-width="1.51"/><path d="M-353,1606L-373,2111L-289,1995Z" fill="#886072" stroke="#886072" stroke-width="1.51"/><path d="M-299,247L-396,1080L-264,666Z" fill="#c47064" stroke="#c47064" stroke-width="1.51"/><path d="M-396,1080L-353,1606L-349,1414Z" fill="#b27d81" stroke="#b27d81" stroke-width="1.51"/><path d="M-396,1080L-373,2111L-353,1606Z" fill="#9e727b" stroke="#9e727b" stroke-width="1.51"/></svg>