<svg xmlns="http://www.w3.org/2000/svg" width="1920" height="2160"><path d="M-196,-421L108,-417L627,-421Z" fill="#cd4c47" stroke="#cd4c47" stroke-width="1.51"/><path d="M-196,-421L627,-421L1434,-448Z" fill="#d37c62" stroke="#d37c62" stroke-width="1.51"/><path d="M1079,2568L272,2580L1596,2580Z" fill="#b1a6b3" stroke="#b1a6b3" stroke-width="1.51"/><path d="M1736,2549L1596,2580L1930,2561Z" fill="#6d8fa7" stroke="#6d8fa7" stroke-width="1.51"/><path d="M1434,-448L1694,-400L2233,-411Z" fill="#9b7972" stroke="#9b7972" stroke-width="1.51"/><path d="M2104,-191L2138,-45L2233,-411Z" fill="#9d5e80" stroke="#9d5e80" stroke-width="1.51"/><path d="M2097,-253L2104,-191L2233,-411Z" fill="#965b7e" stroke="#965b7e" stroke-width="1.51"/><path d="M2138,-45L2189,188L2233,-411Z" fill="#a76280" stroke="#a76280" stroke-width="1.51"/><path d="M2189,188L2225,523L2233,-411Z" fill="#b16b7c" stroke="#b16b7c" stroke-width="1.51"/><path d="M2044,892L2227,947L2238,668Z" fill="#afaca8" stroke="#afaca8" stroke-width="1.51"/><path d="M2233,-411L2225,523L2238,668Z" fill="#b57680" stroke="#b57680" stroke-width="1.51"/><path d="M1862,1752L1984,2048L2241,1625Z" fill="#71b2b0" stroke="#71b2b0" stroke-width="1.51"/><path d="M2167,2184L2118,2533L2267,2056Z" fill="#4683b7" stroke="#4683b7" stroke-width="1.51"/><path d="M2241,1625L1984,2048L2267,2056Z" fill="#67a0ae" stroke="#67a0ae" stroke-width="1.51"/><path d="M2227,947L2044,892L2292,1270Z" fill="#adb4b8" stroke="#adb4b8" stroke-width="1.51"/><path d="M2044,892L1866,1318L2292,1270Z" fill="#a7c1bb" stroke="#a7c1bb" stroke-width="1.51"/><path d="M2233,-411L2238,668L2292,1270Z" fill="#b58b8d" stroke="#b58b8d" stroke-width="1.51"/><path d="M1866,1318L2241,1399L2292,1270Z" fill="#a2b8ae" stroke="#a2b8ae" stroke-width="1.51"/><path d="M2238,668L2227,947L2292,1270Z" fill="#b1a9af" stroke="#b1a9af" stroke-width="1.51"/><path d="M2241,1625L2267,2056L2292,1270Z" fill="#8a9fa9" stroke="#8a9fa9" stroke-width="1.51"/><path d="M2241,1399L2241,1625L2292,1270Z" fill="#a1a8a6" stroke="#a1a8a6" stroke-width="1.51"/><path d="M627,-421L876,-374L1434,-448Z" fill="#d7917d" stroke="#d7917d" stroke-width="1.51"/><path d="M2189,188L1886,548L2225,523Z" fill="#b2948e" stroke="#b2948e" stroke-width="1.51"/><path d="M1985,1542L1862,1752L2241,1625Z" fill="#85b9af" stroke="#85b9af" stroke-width="1.51"/><path d="M1985,1542L2241,1625L2241,1399Z" fill="#93afac" stroke="#93afac" stroke-width="1.51"/><path d="M1984,2048L2167,2184L2267,2056Z" fill="#5196b2" stroke="#5196b2" stroke-width="1.51"/><path d="M1908,2227L2118,2533L2167,2184Z" fill="#3789bc" stroke="#3789bc" stroke-width="1.51"/><path d="M1867,157L1886,548L2189,188Z" fill="#b89684" stroke="#b89684" stroke-width="1.51"/><path d="M1694,-400L2097,-253L2233,-411Z" fill="#94667c" stroke="#94667c" stroke-width="1.51"/><path d="M2225,523L1956,697L2238,668Z" fill="#b1a19a" stroke="#b1a19a" stroke-width="1.51"/><path d="M1956,697L2044,892L2238,668Z" fill="#adb1a5" stroke="#adb1a5" stroke-width="1.51"/><path d="M1866,1318L1985,1542L2241,1399Z" fill="#9dc0ab" stroke="#9dc0ab" stroke-width="1.51"/><path d="M1886,548L1956,697L2225,523Z" fill="#b3ab97" stroke="#b3ab97" stroke-width="1.51"/><path d="M2138,-45L1867,157L2189,188Z" fill="#b07c81" stroke="#b07c81" stroke-width="1.51"/><path d="M1774,1256L1866,1318L2044,892Z" fill="#b0d5b2" stroke="#b0d5b2" stroke-width="1.51"/><path d="M1908,2227L1930,2561L2118,2533Z" fill="#4e85b3" stroke="#4e85b3" stroke-width="1.51"/><path d="M1984,2048L1908,2227L2167,2184Z" fill="#4c9cb5" stroke="#4c9cb5" stroke-width="1.51"/><path d="M1706,1025L1774,1256L2044,892Z" fill="#b6dbb2" stroke="#b6dbb2" stroke-width="1.51"/><path d="M2104,-191L1728,-76L2138,-45Z" fill="#aa7881" stroke="#aa7881" stroke-width="1.51"/><path d="M1728,-76L1867,157L2138,-45Z" fill="#b4887b" stroke="#b4887b" stroke-width="1.51"/><path d="M2097,-253L1728,-76L2104,-191Z" fill="#a67580" stroke="#a67580" stroke-width="1.51"/><path d="M1694,-400L1728,-76L2097,-253Z" fill="#a88078" stroke="#a88078" stroke-width="1.51"/><path d="M1867,157L1723,231L1886,548Z" fill="#bfa97c" stroke="#bfa97c" stroke-width="1.51"/><path d="M1956,697L1706,1025L2044,892Z" fill="#b5cba6" stroke="#b5cba6" stroke-width="1.51"/><path d="M1723,231L1693,490L1886,548Z" fill="#c3b781" stroke="#c3b781" stroke-width="1.51"/><path d="M1908,2227L1736,2549L1930,2561Z" fill="#5b92ae" stroke="#5b92ae" stroke-width="1.51"/><path d="M1694,641L1706,1025L1956,697Z" fill="#bcd39a" stroke="#bcd39a" stroke-width="1.51"/><path d="M1862,1752L1766,1774L1984,2048Z" fill="#74c0a8" stroke="#74c0a8" stroke-width="1.51"/><path d="M1766,1774L1634,1999L1984,2048Z" fill="#6fc5a5" stroke="#6fc5a5" stroke-width="1.51"/><path d="M1634,1999L1908,2227L1984,2048Z" fill="#5eb4ab" stroke="#5eb4ab" stroke-width="1.51"/><path d="M1866,1318L1691,1547L1985,1542Z" fill="#a1d3a3" stroke="#a1d3a3" stroke-width="1.51"/><path d="M1691,1547L1862,1752L1985,1542Z" fill="#92cea5" stroke="#92cea5" stroke-width="1.51"/><path d="M1623,2264L1736,2549L1908,2227Z" fill="#5ea2b0" stroke="#5ea2b0" stroke-width="1.51"/><path d="M1886,548L1694,641L1956,697Z" fill="#bbc291" stroke="#bbc291" stroke-width="1.51"/><path d="M1634,1999L1623,2264L1908,2227Z" fill="#69b6ac" stroke="#69b6ac" stroke-width="1.51"/><path d="M1691,1547L1766,1774L1862,1752Z" fill="#8ed1a5" stroke="#8ed1a5" stroke-width="1.51"/><path d="M1774,1256L1691,1547L1866,1318Z" fill="#afdca0" stroke="#afdca0" stroke-width="1.51"/><path d="M1728,-76L1723,231L1867,157Z" fill="#c19b74" stroke="#c19b74" stroke-width="1.51"/><path d="M1693,490L1694,641L1886,548Z" fill="#c3c38a" stroke="#c3c38a" stroke-width="1.51"/><path d="M1337,2495L1079,2568L1596,2580Z" fill="#9ca1a5" stroke="#9ca1a5" stroke-width="1.51"/><path d="M1694,641L1359,876L1706,1025Z" fill="#d0df9e" stroke="#d0df9e" stroke-width="1.51"/><path d="M1574,313L1693,490L1723,231Z" fill="#cdb57d" stroke="#cdb57d" stroke-width="1.51"/><path d="M1491,-133L1574,313L1723,231Z" fill="#d3a573" stroke="#d3a573" stroke-width="1.51"/><path d="M1491,-133L1723,231L1728,-76Z" fill="#c89a76" stroke="#c89a76" stroke-width="1.51"/><path d="M1694,-400L1491,-133L1728,-76Z" fill="#bc8e77" stroke="#bc8e77" stroke-width="1.51"/><path d="M1623,2264L1596,2580L1736,2549Z" fill="#749cab" stroke="#749cab" stroke-width="1.51"/><path d="M1510,1944L1634,1999L1766,1774Z" fill="#87cea5" stroke="#87cea5" stroke-width="1.51"/><path d="M1691,1547L1445,1638L1766,1774Z" fill="#a2d9a4" stroke="#a2d9a4" stroke-width="1.51"/><path d="M1420,1532L1691,1547L1774,1256Z" fill="#b8e1a0" stroke="#b8e1a0" stroke-width="1.51"/><path d="M1433,1163L1420,1532L1774,1256Z" fill="#cae9a3" stroke="#cae9a3" stroke-width="1.51"/><path d="M1706,1025L1433,1163L1774,1256Z" fill="#c7e8ae" stroke="#c7e8ae" stroke-width="1.51"/><path d="M1445,1638L1510,1944L1766,1774Z" fill="#9cd6a4" stroke="#9cd6a4" stroke-width="1.51"/><path d="M1368,633L1359,876L1694,641Z" fill="#dcdc93" stroke="#dcdc93" stroke-width="1.51"/><path d="M1574,313L1511,387L1693,490Z" fill="#d4bd7f" stroke="#d4bd7f" stroke-width="1.51"/><path d="M1511,387L1368,633L1693,490Z" fill="#d9ca85" stroke="#d9ca85" stroke-width="1.51"/><path d="M1693,490L1368,633L1694,641Z" fill="#d3ce8b" stroke="#d3ce8b" stroke-width="1.51"/><path d="M1434,-448L1491,-133L1694,-400Z" fill="#ba8973" stroke="#ba8973" stroke-width="1.51"/><path d="M1359,876L1433,1163L1706,1025Z" fill="#d8ecac" stroke="#d8ecac" stroke-width="1.51"/><path d="M1337,2495L1596,2580L1623,2264Z" fill="#84a4ac" stroke="#84a4ac" stroke-width="1.51"/><path d="M1382,2221L1623,2264L1634,1999Z" fill="#80beac" stroke="#80beac" stroke-width="1.51"/><path d="M1420,1532L1445,1638L1691,1547Z" fill="#b8e1a2" stroke="#b8e1a2" stroke-width="1.51"/><path d="M1491,-133L1197,41L1574,313Z" fill="#e0a872" stroke="#e0a872" stroke-width="1.51"/><path d="M1197,41L1185,208L1574,313Z" fill="#edb46f" stroke="#edb46f" stroke-width="1.51"/><path d="M1382,2221L1337,2495L1623,2264Z" fill="#86b2b0" stroke="#86b2b0" stroke-width="1.51"/><path d="M1510,1944L1382,2221L1634,1999Z" fill="#8acaa7" stroke="#8acaa7" stroke-width="1.51"/><path d="M1434,-448L1284,-267L1491,-133Z" fill="#ca9172" stroke="#ca9172" stroke-width="1.51"/><path d="M1445,1638L1304,1720L1510,1944Z" fill="#afdea2" stroke="#afdea2" stroke-width="1.51"/><path d="M1185,208L1511,387L1574,313Z" fill="#e4bb77" stroke="#e4bb77" stroke-width="1.51"/><path d="M1296,2142L1382,2221L1510,1944Z" fill="#95cba7" stroke="#95cba7" stroke-width="1.51"/><path d="M1304,1720L1329,1935L1510,1944Z" fill="#a9dba2" stroke="#a9dba2" stroke-width="1.51"/><path d="M1178,1296L1282,1537L1420,1532Z" fill="#daf09b" stroke="#daf09b" stroke-width="1.51"/><path d="M1359,876L1281,917L1433,1163Z" fill="#e7f0a6" stroke="#e7f0a6" stroke-width="1.51"/><path d="M1178,1296L1420,1532L1433,1163Z" fill="#def29e" stroke="#def29e" stroke-width="1.51"/><path d="M1329,1935L1296,2142L1510,1944Z" fill="#9cd4a2" stroke="#9cd4a2" stroke-width="1.51"/><path d="M1185,208L1271,432L1511,387Z" fill="#edc377" stroke="#edc377" stroke-width="1.51"/><path d="M1271,432L1368,633L1511,387Z" fill="#e7ce80" stroke="#e7ce80" stroke-width="1.51"/><path d="M1284,-267L1197,41L1491,-133Z" fill="#de9f73" stroke="#de9f73" stroke-width="1.51"/><path d="M378,2526L272,2580L1079,2568Z" fill="#b49095" stroke="#b49095" stroke-width="1.51"/><path d="M1278,650L1359,876L1368,633Z" fill="#eae28f" stroke="#eae28f" stroke-width="1.51"/><path d="M876,-374L1284,-267L1434,-448Z" fill="#d39271" stroke="#d39271" stroke-width="1.51"/><path d="M1420,1532L1282,1537L1445,1638Z" fill="#c7e89f" stroke="#c7e89f" stroke-width="1.51"/><path d="M1282,1537L1304,1720L1445,1638Z" fill="#c4e7a0" stroke="#c4e7a0" stroke-width="1.51"/><path d="M1281,917L1178,1296L1433,1163Z" fill="#ebf7aa" stroke="#ebf7aa" stroke-width="1.51"/><path d="M1080,-103L1197,41L1284,-267Z" fill="#e9a475" stroke="#e9a475" stroke-width="1.51"/><path d="M1296,2142L1043,2181L1337,2495Z" fill="#a0c0ad" stroke="#a0c0ad" stroke-width="1.51"/><path d="M1278,650L1281,917L1359,876Z" fill="#ecea96" stroke="#ecea96" stroke-width="1.51"/><path d="M1271,432L1278,650L1368,633Z" fill="#eed885" stroke="#eed885" stroke-width="1.51"/><path d="M1296,2142L1337,2495L1382,2221Z" fill="#93baae" stroke="#93baae" stroke-width="1.51"/><path d="M1043,2181L1079,2568L1337,2495Z" fill="#a6b3ae" stroke="#a6b3ae" stroke-width="1.51"/><path d="M950,997L1178,1296L1281,917Z" fill="#f7fcb2" stroke="#f7fcb2" stroke-width="1.51"/><path d="M976,1948L1043,2181L1296,2142Z" fill="#add4ad" stroke="#add4ad" stroke-width="1.51"/><path d="M1304,1720L976,1948L1329,1935Z" fill="#bae1a1" stroke="#bae1a1" stroke-width="1.51"/><path d="M976,1948L1296,2142L1329,1935Z" fill="#addba3" stroke="#addba3" stroke-width="1.51"/><path d="M1278,650L871,821L1281,917Z" fill="#f7ed9a" stroke="#f7ed9a" stroke-width="1.51"/><path d="M1282,1537L959,1658L1304,1720Z" fill="#d1eca1" stroke="#d1eca1" stroke-width="1.51"/><path d="M959,1658L976,1948L1304,1720Z" fill="#c8e9a9" stroke="#c8e9a9" stroke-width="1.51"/><path d="M1271,432L860,388L1278,650Z" fill="#f9d685" stroke="#f9d685" stroke-width="1.51"/><path d="M871,821L950,997L1281,917Z" fill="#fcf5ab" stroke="#fcf5ab" stroke-width="1.51"/><path d="M1178,1296L960,1561L1282,1537Z" fill="#e3f4a0" stroke="#e3f4a0" stroke-width="1.51"/><path d="M960,1561L959,1658L1282,1537Z" fill="#dbf0a8" stroke="#dbf0a8" stroke-width="1.51"/><path d="M860,388L815,451L1278,650Z" fill="#ffd990" stroke="#ffd990" stroke-width="1.51"/><path d="M876,-374L1080,-103L1284,-267Z" fill="#e29c7a" stroke="#e29c7a" stroke-width="1.51"/><path d="M1185,208L953,281L1271,432Z" fill="#f9c47b" stroke="#f9c47b" stroke-width="1.51"/><path d="M815,451L871,821L1278,650Z" fill="#ffe499" stroke="#ffe499" stroke-width="1.51"/><path d="M953,281L860,388L1271,432Z" fill="#fecc86" stroke="#fecc86" stroke-width="1.51"/><path d="M950,997L864,1175L1178,1296Z" fill="#fbfeb8" stroke="#fbfeb8" stroke-width="1.51"/><path d="M953,281L1185,208L1197,41Z" fill="#fab875" stroke="#fab875" stroke-width="1.51"/><path d="M1080,-103L953,281L1197,41Z" fill="#f7b179" stroke="#f7b179" stroke-width="1.51"/><path d="M718,2392L378,2526L1079,2568Z" fill="#b2a2a3" stroke="#b2a2a3" stroke-width="1.51"/><path d="M864,1175L960,1561L1178,1296Z" fill="#f2faab" stroke="#f2faab" stroke-width="1.51"/><path d="M-196,-421L58,-412L108,-417Z" fill="#c53847" stroke="#c53847" stroke-width="1.51"/><path d="M1043,2181L718,2392L1079,2568Z" fill="#abb9bc" stroke="#abb9bc" stroke-width="1.51"/><path d="M766,-60L953,281L1080,-103Z" fill="#faaf7f" stroke="#faaf7f" stroke-width="1.51"/><path d="M876,-374L766,-60L1080,-103Z" fill="#ed9f7f" stroke="#ed9f7f" stroke-width="1.51"/><path d="M815,451L676,653L871,821Z" fill="#ffdb8c" stroke="#ffdb8c" stroke-width="1.51"/><path d="M766,-60L702,204L953,281Z" fill="#fdae72" stroke="#fdae72" stroke-width="1.51"/><path d="M864,1175L720,1215L960,1561Z" fill="#f6f5a6" stroke="#f6f5a6" stroke-width="1.51"/><path d="M959,1658L741,1734L976,1948Z" fill="#cee6ab" stroke="#cee6ab" stroke-width="1.51"/><path d="M976,1948L650,2182L1043,2181Z" fill="#b4d2b1" stroke="#b4d2b1" stroke-width="1.51"/><path d="M650,2182L718,2392L1043,2181Z" fill="#aebfb0" stroke="#aebfb0" stroke-width="1.51"/><path d="M720,1215L623,1545L960,1561Z" fill="#eeee9a" stroke="#eeee9a" stroke-width="1.51"/><path d="M741,1734L625,1888L976,1948Z" fill="#c7dda2" stroke="#c7dda2" stroke-width="1.51"/><path d="M625,1888L650,2182L976,1948Z" fill="#bad4a0" stroke="#bad4a0" stroke-width="1.51"/><path d="M741,1734L959,1658L960,1561Z" fill="#daecaa" stroke="#daecaa" stroke-width="1.51"/><path d="M623,1545L741,1734L960,1561Z" fill="#dee79f" stroke="#dee79f" stroke-width="1.51"/><path d="M871,821L688,892L950,997Z" fill="#ffefa4" stroke="#ffefa4" stroke-width="1.51"/><path d="M702,204L860,388L953,281Z" fill="#ffbe7b" stroke="#ffbe7b" stroke-width="1.51"/><path d="M688,892L864,1175L950,997Z" fill="#fff5ae" stroke="#fff5ae" stroke-width="1.51"/><path d="M625,1888L572,1967L650,2182Z" fill="#bbcb94" stroke="#bbcb94" stroke-width="1.51"/><path d="M688,892L720,1215L864,1175Z" fill="#fff4ab" stroke="#fff4ab" stroke-width="1.51"/><path d="M676,653L688,892L871,821Z" fill="#ffe492" stroke="#ffe492" stroke-width="1.51"/><path d="M568,-249L766,-60L876,-374Z" fill="#e79270" stroke="#e79270" stroke-width="1.51"/><path d="M627,-421L568,-249L876,-374Z" fill="#db8769" stroke="#db8769" stroke-width="1.51"/><path d="M702,204L815,451L860,388Z" fill="#ffc17a" stroke="#ffc17a" stroke-width="1.51"/><path d="M702,204L359,404L815,451Z" fill="#fdb76c" stroke="#fdb76c" stroke-width="1.51"/><path d="M359,404L676,653L815,451Z" fill="#fec573" stroke="#fec573" stroke-width="1.51"/><path d="M650,2182L538,2273L718,2392Z" fill="#aeb1a2" stroke="#aeb1a2" stroke-width="1.51"/><path d="M688,892L439,1284L720,1215Z" fill="#fee99d" stroke="#fee99d" stroke-width="1.51"/><path d="M439,1284L623,1545L720,1215Z" fill="#f5e48d" stroke="#f5e48d" stroke-width="1.51"/><path d="M443,91L702,204L766,-60Z" fill="#f89f65" stroke="#f89f65" stroke-width="1.51"/><path d="M568,-249L443,91L766,-60Z" fill="#f09165" stroke="#f09165" stroke-width="1.51"/><path d="M676,653L462,718L688,892Z" fill="#fed884" stroke="#fed884" stroke-width="1.51"/><path d="M411,826L439,1284L688,892Z" fill="#ffdc91" stroke="#ffdc91" stroke-width="1.51"/><path d="M623,1545L625,1888L741,1734Z" fill="#d5dc96" stroke="#d5dc96" stroke-width="1.51"/><path d="M445,1553L360,1741L623,1545Z" fill="#e1d087" stroke="#e1d087" stroke-width="1.51"/><path d="M623,1545L360,1741L625,1888Z" fill="#d6d18d" stroke="#d6d18d" stroke-width="1.51"/><path d="M359,404L462,718L676,653Z" fill="#fec171" stroke="#fec171" stroke-width="1.51"/><path d="M538,2273L378,2526L718,2392Z" fill="#b19e99" stroke="#b19e99" stroke-width="1.51"/><path d="M462,718L411,826L688,892Z" fill="#fed482" stroke="#fed482" stroke-width="1.51"/><path d="M443,91L359,404L702,204Z" fill="#fc9f5d" stroke="#fc9f5d" stroke-width="1.51"/><path d="M439,1284L445,1553L623,1545Z" fill="#edd985" stroke="#edd985" stroke-width="1.51"/><path d="M306,232L359,404L443,91Z" fill="#fa9354" stroke="#fa9354" stroke-width="1.51"/><path d="M335,31L443,91L568,-249Z" fill="#f0865a" stroke="#f0865a" stroke-width="1.51"/><path d="M572,1967L538,2273L650,2182Z" fill="#b6bb99" stroke="#b6bb99" stroke-width="1.51"/><path d="M411,826L209,1151L439,1284Z" fill="#ffd28c" stroke="#ffd28c" stroke-width="1.51"/><path d="M360,1741L572,1967L625,1888Z" fill="#caca8c" stroke="#caca8c" stroke-width="1.51"/><path d="M108,-417L568,-249L627,-421Z" fill="#d76f57" stroke="#d76f57" stroke-width="1.51"/><path d="M439,1284L305,1414L445,1553Z" fill="#f2d17d" stroke="#f2d17d" stroke-width="1.51"/><path d="M143,2064L258,2352L538,2273Z" fill="#b69a8a" stroke="#b69a8a" stroke-width="1.51"/><path d="M258,2352L378,2526L538,2273Z" fill="#b3928e" stroke="#b3928e" stroke-width="1.51"/><path d="M163,-137L335,31L568,-249Z" fill="#eb7655" stroke="#eb7655" stroke-width="1.51"/><path d="M108,-417L163,-137L568,-249Z" fill="#dd6350" stroke="#dd6350" stroke-width="1.51"/><path d="M143,2064L538,2273L572,1967Z" fill="#bbb18a" stroke="#bbb18a" stroke-width="1.51"/><path d="M360,1741L143,2064L572,1967Z" fill="#c7b981" stroke="#c7b981" stroke-width="1.51"/><path d="M135,1073L209,1151L411,826Z" fill="#ffc481" stroke="#ffc481" stroke-width="1.51"/><path d="M277,1705L360,1741L445,1553Z" fill="#dcc480" stroke="#dcc480" stroke-width="1.51"/><path d="M111,707L411,826L462,718Z" fill="#febd70" stroke="#febd70" stroke-width="1.51"/><path d="M359,404L111,707L462,718Z" fill="#fdb065" stroke="#fdb065" stroke-width="1.51"/><path d="M194,384L111,707L359,404Z" fill="#fb9d59" stroke="#fb9d59" stroke-width="1.51"/><path d="M335,31L306,232L443,91Z" fill="#f78851" stroke="#f78851" stroke-width="1.51"/><path d="M305,1414L277,1705L445,1553Z" fill="#e6c67d" stroke="#e6c67d" stroke-width="1.51"/><path d="M209,1151L305,1414L439,1284Z" fill="#f9cb7e" stroke="#f9cb7e" stroke-width="1.51"/><path d="M277,1705L143,2064L360,1741Z" fill="#ceb27b" stroke="#ceb27b" stroke-width="1.51"/><path d="M111,707L135,1073L411,826Z" fill="#ffb873" stroke="#ffb873" stroke-width="1.51"/><path d="M306,232L194,384L359,404Z" fill="#fa9554" stroke="#fa9554" stroke-width="1.51"/><path d="M258,2352L272,2580L378,2526Z" fill="#b57f85" stroke="#b57f85" stroke-width="1.51"/><path d="M-70,1830L143,2064L277,1705Z" fill="#cca373" stroke="#cca373" stroke-width="1.51"/><path d="M209,1151L18,1259L305,1414Z" fill="#f8bc76" stroke="#f8bc76" stroke-width="1.51"/><path d="M-118,1562L277,1705L305,1414Z" fill="#e6b272" stroke="#e6b272" stroke-width="1.51"/><path d="M-102,226L306,232L335,31Z" fill="#f67546" stroke="#f67546" stroke-width="1.51"/><path d="M163,-137L-102,226L335,31Z" fill="#ef6647" stroke="#ef6647" stroke-width="1.51"/><path d="M18,1259L-118,1562L305,1414Z" fill="#efb06e" stroke="#efb06e" stroke-width="1.51"/><path d="M-102,226L194,384L306,232Z" fill="#f77c49" stroke="#f77c49" stroke-width="1.51"/><path d="M-17,765L57,1062L111,707Z" fill="#faa76e" stroke="#faa76e" stroke-width="1.51"/><path d="M111,707L57,1062L135,1073Z" fill="#feb074" stroke="#feb074" stroke-width="1.51"/><path d="M143,2064L-104,2219L258,2352Z" fill="#b6867d" stroke="#b6867d" stroke-width="1.51"/><path d="M258,2352L-118,2399L272,2580Z" fill="#b4727d" stroke="#b4727d" stroke-width="1.51"/><path d="M-118,2399L-236,2502L272,2580Z" fill="#ac607c" stroke="#ac607c" stroke-width="1.51"/><path d="M-118,1562L-70,1830L277,1705Z" fill="#d6a374" stroke="#d6a374" stroke-width="1.51"/><path d="M-104,2219L-118,2399L258,2352Z" fill="#ad7581" stroke="#ad7581" stroke-width="1.51"/><path d="M108,-417L58,-412L163,-137Z" fill="#d44a47" stroke="#d44a47" stroke-width="1.51"/><path d="M-154,-186L-102,226L163,-137Z" fill="#e2534b" stroke="#e2534b" stroke-width="1.51"/><path d="M-172,522L111,707L194,384Z" fill="#f68f58" stroke="#f68f58" stroke-width="1.51"/><path d="M135,1073L18,1259L209,1151Z" fill="#fdb77a" stroke="#fdb77a" stroke-width="1.51"/><path d="M58,-412L-154,-186L163,-137Z" fill="#d6474a" stroke="#d6474a" stroke-width="1.51"/><path d="M-102,226L-172,522L194,384Z" fill="#f07b51" stroke="#f07b51" stroke-width="1.51"/><path d="M57,1062L18,1259L135,1073Z" fill="#fcb47d" stroke="#fcb47d" stroke-width="1.51"/><path d="M-70,1830L-145,1970L143,2064Z" fill="#bd9676" stroke="#bd9676" stroke-width="1.51"/><path d="M-172,522L-17,765L111,707Z" fill="#f39562" stroke="#f39562" stroke-width="1.51"/><path d="M-145,1970L-104,2219L143,2064Z" fill="#b58a7a" stroke="#b58a7a" stroke-width="1.51"/><path d="M-17,765L-207,913L57,1062Z" fill="#f5a375" stroke="#f5a375" stroke-width="1.51"/><path d="M-245,365L-172,522L-102,226Z" fill="#e86e54" stroke="#e86e54" stroke-width="1.51"/><path d="M-207,913L18,1259L57,1062Z" fill="#f7ad82" stroke="#f7ad82" stroke-width="1.51"/><path d="M-196,-421L-154,-186L58,-412Z" fill="#c7364a" stroke="#c7364a" stroke-width="1.51"/><path d="M-154,-186L-237,-179L-102,226Z" fill="#da464e" stroke="#da464e" stroke-width="1.51"/><path d="M-172,522L-264,666L-17,765Z" fill="#ed8b64" stroke="#ed8b64" stroke-width="1.51"/><path d="M-207,913L-396,1080L18,1259Z" fill="#eda283" stroke="#eda283" stroke-width="1.51"/><path d="M-396,1080L-349,1414L18,1259Z" fill="#e29c78" stroke="#e29c78" stroke-width="1.51"/><path d="M-349,1414L-118,1562L18,1259Z" fill="#e3a073" stroke="#e3a073" stroke-width="1.51"/><path d="M-237,-179L-299,247L-102,226Z" fill="#dd4e4a" stroke="#dd4e4a" stroke-width="1.51"/><path d="M-264,666L-207,913L-17,765Z" fill="#ed956d" stroke="#ed956d" stroke-width="1.51"/><path d="M-145,1970L-289,1995L-104,2219Z" fill="#ae837a" stroke="#ae837a" stroke-width="1.51"/><path d="M-289,1995L-145,1970L-70,1830Z" fill="#b88d78" stroke="#b88d78" stroke-width="1.51"/><path d="M-353,1606L-289,1995L-70,1830Z" fill="#bb8c77" stroke="#bb8c77" stroke-width="1.51"/><path d="M-118,1562L-353,1606L-70,1830Z" fill="#cc9677" stroke="#cc9677" stroke-width="1.51"/><path d="M-196,-421L-237,-179L-154,-186Z" fill="#c7324c" stroke="#c7324c" stroke-width="1.51"/><path d="M-373,2111L-236,2502L-118,2399Z" fill="#9b6281" stroke="#9b6281" stroke-width="1.51"/><path d="M-289,1995L-373,2111L-104,2219Z" fill="#a4797a" stroke="#a4797a" stroke-width="1.51"/><path d="M-373,2111L-118,2399L-104,2219Z" fill="#a36f81" stroke="#a36f81" stroke-width="1.51"/><path d="M-299,247L-245,365L-102,226Z" fill="#e1614e" stroke="#e1614e" stroke-width="1.51"/><path d="M-349,1414L-353,1606L-118,1562Z" fill="#cf9472" stroke="#cf9472" stroke-width="1.51"/><path d="M-245,365L-264,666L-172,522Z" fill="#e47a5a" stroke="#e47a5a" stroke-width="1.51"/><path d="M-264,666L-396,1080L-207,913Z" fill="#e29172" stroke="#e29172" stroke-width="1.51"/><path d="M-299,247L-264,666L-245,365Z" fill="#df6e54" stroke="#df6e54" stroke-width="1.51"/><path d="M-353,1606L-373,2111L-289,1995Z" fill="#a98174" stroke="#a98174" stroke-width="1.51"/><path d="M-299,247L-396,1080L-264,666Z" fill="#dd8062" stroke="#dd8062" stroke-width="1.51"/><path d="M-396,1080L-353,1606L-349,1414Z" fill="#d2926f" stroke="#d2926f" stroke-width="1.51"/><path d="M-396,1080L-373,2111L-353,1606Z" fill="#bf8971" stroke="#bf8971" stroke-width="1.51"/></svg>