<svg xmlns="http://www.w3.org/2000/svg" width="1920" height="2160"><path d="M-196,-421L108,-417L627,-421Z" fill="#d14c37" stroke="#d14c37" stroke-width="1.51"/><path d="M-196,-421L627,-421L1434,-448Z" fill="#d77c51" stroke="#d77c51" stroke-width="1.51"/><path d="M1079,2568L272,2580L1596,2580Z" fill="#8bb477" stroke="#8bb477" stroke-width="1.51"/><path d="M1736,2549L1596,2580L1930,2561Z" fill="#43984f" stroke="#43984f" stroke-width="1.51"/><path d="M1434,-448L1694,-400L2233,-411Z" fill="#9c7842" stroke="#9c7842" stroke-width="1.51"/><path d="M2104,-191L2138,-45L2233,-411Z" fill="#8e6b37" stroke="#8e6b37" stroke-width="1.51"/><path d="M2097,-253L2104,-191L2233,-411Z" fill="#8a6937" stroke="#8a6937" stroke-width="1.51"/><path d="M2138,-45L2189,188L2233,-411Z" fill="#947038" stroke="#947038" stroke-width="1.51"/><path d="M2189,188L2225,523L2233,-411Z" fill="#987b40" stroke="#987b40" stroke-width="1.51"/><path d="M2044,892L2227,947L2238,668Z" fill="#97b86d" stroke="#97b86d" stroke-width="1.51"/><path d="M2233,-411L2225,523L2238,668Z" fill="#998747" stroke="#998747" stroke-width="1.51"/><path d="M1862,1752L1984,2048L2241,1625Z" fill="#64b65d" stroke="#64b65d" stroke-width="1.51"/><path d="M2167,2184L2118,2533L2267,2056Z" fill="#1f924d" stroke="#1f924d" stroke-width="1.51"/><path d="M2241,1625L1984,2048L2267,2056Z" fill="#4fa757" stroke="#4fa757" stroke-width="1.51"/><path d="M2227,947L2044,892L2292,1270Z" fill="#94c07d" stroke="#94c07d" stroke-width="1.51"/><path d="M2044,892L1866,1318L2292,1270Z" fill="#95cb80" stroke="#95cb80" stroke-width="1.51"/><path d="M2233,-411L2238,668L2292,1270Z" fill="#979a53" stroke="#979a53" stroke-width="1.51"/><path d="M1866,1318L2241,1399L2292,1270Z" fill="#87c06f" stroke="#87c06f" stroke-width="1.51"/><path d="M2238,668L2227,947L2292,1270Z" fill="#91b674" stroke="#91b674" stroke-width="1.51"/><path d="M2241,1625L2267,2056L2292,1270Z" fill="#66a956" stroke="#66a956" stroke-width="1.51"/><path d="M2241,1399L2241,1625L2292,1270Z" fill="#7ab162" stroke="#7ab162" stroke-width="1.51"/><path d="M627,-421L876,-374L1434,-448Z" fill="#dc916b" stroke="#dc916b" stroke-width="1.51"/><path d="M2189,188L1886,548L2225,523Z" fill="#a0a155" stroke="#a0a155" stroke-width="1.51"/><path d="M1985,1542L1862,1752L2241,1625Z" fill="#75be62" stroke="#75be62" stroke-width="1.51"/><path d="M1985,1542L2241,1625L2241,1399Z" fill="#76b862" stroke="#76b862" stroke-width="1.51"/><path d="M1984,2048L2167,2184L2267,2056Z" fill="#389f54" stroke="#389f54" stroke-width="1.51"/><path d="M1908,2227L2118,2533L2167,2184Z" fill="#1e9850" stroke="#1e9850" stroke-width="1.51"/><path d="M1867,157L1886,548L2189,188Z" fill="#ab9e53" stroke="#ab9e53" stroke-width="1.51"/><path d="M1694,-400L2097,-253L2233,-411Z" fill="#8e6f3c" stroke="#8e6f3c" stroke-width="1.51"/><path d="M2225,523L1956,697L2238,668Z" fill="#9bad60" stroke="#9bad60" stroke-width="1.51"/><path d="M1956,697L2044,892L2238,668Z" fill="#9cbb6b" stroke="#9cbb6b" stroke-width="1.51"/><path d="M1866,1318L1985,1542L2241,1399Z" fill="#88c66c" stroke="#88c66c" stroke-width="1.51"/><path d="M1886,548L1956,697L2225,523Z" fill="#a5b362" stroke="#a5b362" stroke-width="1.51"/><path d="M2138,-45L1867,157L2189,188Z" fill="#a28846" stroke="#a28846" stroke-width="1.51"/><path d="M1774,1256L1866,1318L2044,892Z" fill="#a7d687" stroke="#a7d687" stroke-width="1.51"/><path d="M1908,2227L1930,2561L2118,2533Z" fill="#28934d" stroke="#28934d" stroke-width="1.51"/><path d="M1984,2048L1908,2227L2167,2184Z" fill="#3ca556" stroke="#3ca556" stroke-width="1.51"/><path d="M1706,1025L1774,1256L2044,892Z" fill="#b1db8d" stroke="#b1db8d" stroke-width="1.51"/><path d="M2104,-191L1728,-76L2138,-45Z" fill="#a27e3f" stroke="#a27e3f" stroke-width="1.51"/><path d="M1728,-76L1867,157L2138,-45Z" fill="#ac8a47" stroke="#ac8a47" stroke-width="1.51"/><path d="M2097,-253L1728,-76L2104,-191Z" fill="#9f7a3d" stroke="#9f7a3d" stroke-width="1.51"/><path d="M1694,-400L1728,-76L2097,-253Z" fill="#a67e41" stroke="#a67e41" stroke-width="1.51"/><path d="M1867,157L1723,231L1886,548Z" fill="#b9a959" stroke="#b9a959" stroke-width="1.51"/><path d="M1956,697L1706,1025L2044,892Z" fill="#adce7b" stroke="#adce7b" stroke-width="1.51"/><path d="M1723,231L1693,490L1886,548Z" fill="#beb660" stroke="#beb660" stroke-width="1.51"/><path d="M1908,2227L1736,2549L1930,2561Z" fill="#3a9b51" stroke="#3a9b51" stroke-width="1.51"/><path d="M1694,641L1706,1025L1956,697Z" fill="#b8d178" stroke="#b8d178" stroke-width="1.51"/><path d="M1862,1752L1766,1774L1984,2048Z" fill="#6fbf62" stroke="#6fbf62" stroke-width="1.51"/><path d="M1766,1774L1634,1999L1984,2048Z" fill="#6ec064" stroke="#6ec064" stroke-width="1.51"/><path d="M1634,1999L1908,2227L1984,2048Z" fill="#58b55e" stroke="#58b55e" stroke-width="1.51"/><path d="M1866,1318L1691,1547L1985,1542Z" fill="#96d071" stroke="#96d071" stroke-width="1.51"/><path d="M1691,1547L1862,1752L1985,1542Z" fill="#89cb69" stroke="#89cb69" stroke-width="1.51"/><path d="M1623,2264L1736,2549L1908,2227Z" fill="#4ba958" stroke="#4ba958" stroke-width="1.51"/><path d="M1886,548L1694,641L1956,697Z" fill="#b4c16b" stroke="#b4c16b" stroke-width="1.51"/><path d="M1634,1999L1623,2264L1908,2227Z" fill="#5fb75f" stroke="#5fb75f" stroke-width="1.51"/><path d="M1691,1547L1766,1774L1862,1752Z" fill="#8acd67" stroke="#8acd67" stroke-width="1.51"/><path d="M1774,1256L1691,1547L1866,1318Z" fill="#a5d878" stroke="#a5d878" stroke-width="1.51"/><path d="M1728,-76L1723,231L1867,157Z" fill="#bc994f" stroke="#bc994f" stroke-width="1.51"/><path d="M1693,490L1694,641L1886,548Z" fill="#bec168" stroke="#bec168" stroke-width="1.51"/><path d="M1337,2495L1079,2568L1596,2580Z" fill="#73ab5d" stroke="#73ab5d" stroke-width="1.51"/><path d="M1694,641L1359,876L1706,1025Z" fill="#cddd7f" stroke="#cddd7f" stroke-width="1.51"/><path d="M1574,313L1693,490L1723,231Z" fill="#c8b45d" stroke="#c8b45d" stroke-width="1.51"/><path d="M1491,-133L1574,313L1723,231Z" fill="#cea453" stroke="#cea453" stroke-width="1.51"/><path d="M1491,-133L1723,231L1728,-76Z" fill="#c5974d" stroke="#c5974d" stroke-width="1.51"/><path d="M1694,-400L1491,-133L1728,-76Z" fill="#bb8945" stroke="#bb8945" stroke-width="1.51"/><path d="M1623,2264L1596,2580L1736,2549Z" fill="#54a455" stroke="#54a455" stroke-width="1.51"/><path d="M1510,1944L1634,1999L1766,1774Z" fill="#84c966" stroke="#84c966" stroke-width="1.51"/><path d="M1691,1547L1445,1638L1766,1774Z" fill="#9dd56a" stroke="#9dd56a" stroke-width="1.51"/><path d="M1420,1532L1691,1547L1774,1256Z" fill="#afdd76" stroke="#afdd76" stroke-width="1.51"/><path d="M1433,1163L1420,1532L1774,1256Z" fill="#c2e580" stroke="#c2e580" stroke-width="1.51"/><path d="M1706,1025L1433,1163L1774,1256Z" fill="#c2e48d" stroke="#c2e48d" stroke-width="1.51"/><path d="M1445,1638L1510,1944L1766,1774Z" fill="#97d269" stroke="#97d269" stroke-width="1.51"/><path d="M1368,633L1359,876L1694,641Z" fill="#d8db79" stroke="#d8db79" stroke-width="1.51"/><path d="M1574,313L1511,387L1693,490Z" fill="#cfbc61" stroke="#cfbc61" stroke-width="1.51"/><path d="M1511,387L1368,633L1693,490Z" fill="#d5c868" stroke="#d5c868" stroke-width="1.51"/><path d="M1693,490L1368,633L1694,641Z" fill="#cfcc6c" stroke="#cfcc6c" stroke-width="1.51"/><path d="M1434,-448L1491,-133L1694,-400Z" fill="#ba8746" stroke="#ba8746" stroke-width="1.51"/><path d="M1359,876L1433,1163L1706,1025Z" fill="#d5ea91" stroke="#d5ea91" stroke-width="1.51"/><path d="M1337,2495L1596,2580L1623,2264Z" fill="#65ac57" stroke="#65ac57" stroke-width="1.51"/><path d="M1382,2221L1623,2264L1634,1999Z" fill="#76bf61" stroke="#76bf61" stroke-width="1.51"/><path d="M1420,1532L1445,1638L1691,1547Z" fill="#b0de70" stroke="#b0de70" stroke-width="1.51"/><path d="M1491,-133L1197,41L1574,313Z" fill="#dba557" stroke="#dba557" stroke-width="1.51"/><path d="M1197,41L1185,208L1574,313Z" fill="#e7b262" stroke="#e7b262" stroke-width="1.51"/><path d="M1382,2221L1337,2495L1623,2264Z" fill="#71b960" stroke="#71b960" stroke-width="1.51"/><path d="M1510,1944L1382,2221L1634,1999Z" fill="#83c865" stroke="#83c865" stroke-width="1.51"/><path d="M1434,-448L1284,-267L1491,-133Z" fill="#c98e4d" stroke="#c98e4d" stroke-width="1.51"/><path d="M1445,1638L1304,1720L1510,1944Z" fill="#a8da6f" stroke="#a8da6f" stroke-width="1.51"/><path d="M1185,208L1511,387L1574,313Z" fill="#dfb962" stroke="#dfb962" stroke-width="1.51"/><path d="M1296,2142L1382,2221L1510,1944Z" fill="#8aca6a" stroke="#8aca6a" stroke-width="1.51"/><path d="M1304,1720L1329,1935L1510,1944Z" fill="#a2d770" stroke="#a2d770" stroke-width="1.51"/><path d="M1178,1296L1282,1537L1420,1532Z" fill="#ceea84" stroke="#ceea84" stroke-width="1.51"/><path d="M1359,876L1281,917L1433,1163Z" fill="#e2ee96" stroke="#e2ee96" stroke-width="1.51"/><path d="M1178,1296L1420,1532L1433,1163Z" fill="#d3ed8a" stroke="#d3ed8a" stroke-width="1.51"/><path d="M1329,1935L1296,2142L1510,1944Z" fill="#94d06e" stroke="#94d06e" stroke-width="1.51"/><path d="M1185,208L1271,432L1511,387Z" fill="#e7c06a" stroke="#e7c06a" stroke-width="1.51"/><path d="M1271,432L1368,633L1511,387Z" fill="#e1cc6e" stroke="#e1cc6e" stroke-width="1.51"/><path d="M1284,-267L1197,41L1491,-133Z" fill="#dc9952" stroke="#dc9952" stroke-width="1.51"/><path d="M378,2526L272,2580L1079,2568Z" fill="#91a05a" stroke="#91a05a" stroke-width="1.51"/><path d="M1278,650L1359,876L1368,633Z" fill="#e4e081" stroke="#e4e081" stroke-width="1.51"/><path d="M876,-374L1284,-267L1434,-448Z" fill="#d28f59" stroke="#d28f59" stroke-width="1.51"/><path d="M1420,1532L1282,1537L1445,1638Z" fill="#bde378" stroke="#bde378" stroke-width="1.51"/><path d="M1282,1537L1304,1720L1445,1638Z" fill="#bbe277" stroke="#bbe277" stroke-width="1.51"/><path d="M1281,917L1178,1296L1433,1163Z" fill="#e4f49e" stroke="#e4f49e" stroke-width="1.51"/><path d="M1080,-103L1197,41L1284,-267Z" fill="#e69e5d" stroke="#e69e5d" stroke-width="1.51"/><path d="M1296,2142L1043,2181L1337,2495Z" fill="#8ac66f" stroke="#8ac66f" stroke-width="1.51"/><path d="M1278,650L1281,917L1359,876Z" fill="#e6e78b" stroke="#e6e78b" stroke-width="1.51"/><path d="M1271,432L1278,650L1368,633Z" fill="#e8d579" stroke="#e8d579" stroke-width="1.51"/><path d="M1296,2142L1337,2495L1382,2221Z" fill="#7ec067" stroke="#7ec067" stroke-width="1.51"/><path d="M1043,2181L1079,2568L1337,2495Z" fill="#87bc70" stroke="#87bc70" stroke-width="1.51"/><path d="M950,997L1178,1296L1281,917Z" fill="#f3faae" stroke="#f3faae" stroke-width="1.51"/><path d="M976,1948L1043,2181L1296,2142Z" fill="#a3d580" stroke="#a3d580" stroke-width="1.51"/><path d="M1304,1720L976,1948L1329,1935Z" fill="#b1dd7c" stroke="#b1dd7c" stroke-width="1.51"/><path d="M976,1948L1296,2142L1329,1935Z" fill="#a4d77a" stroke="#a4d77a" stroke-width="1.51"/><path d="M1278,650L871,821L1281,917Z" fill="#f3ec96" stroke="#f3ec96" stroke-width="1.51"/><path d="M1282,1537L959,1658L1304,1720Z" fill="#c8e883" stroke="#c8e883" stroke-width="1.51"/><path d="M959,1658L976,1948L1304,1720Z" fill="#c2e588" stroke="#c2e588" stroke-width="1.51"/><path d="M1271,432L860,388L1278,650Z" fill="#f5d481" stroke="#f5d481" stroke-width="1.51"/><path d="M871,821L950,997L1281,917Z" fill="#faf5a9" stroke="#faf5a9" stroke-width="1.51"/><path d="M1178,1296L960,1561L1282,1537Z" fill="#daef90" stroke="#daef90" stroke-width="1.51"/><path d="M960,1561L959,1658L1282,1537Z" fill="#d5ed90" stroke="#d5ed90" stroke-width="1.51"/><path d="M860,388L815,451L1278,650Z" fill="#ffd98f" stroke="#ffd98f" stroke-width="1.51"/><path d="M876,-374L1080,-103L1284,-267Z" fill="#e49864" stroke="#e49864" stroke-width="1.51"/><path d="M1185,208L953,281L1271,432Z" fill="#f5c277" stroke="#f5c277" stroke-width="1.51"/><path d="M815,451L871,821L1278,650Z" fill="#fee399" stroke="#fee399" stroke-width="1.51"/><path d="M953,281L860,388L1271,432Z" fill="#fdcb84" stroke="#fdcb84" stroke-width="1.51"/><path d="M950,997L864,1175L1178,1296Z" fill="#f8fcb5" stroke="#f8fcb5" stroke-width="1.51"/><path d="M953,281L1185,208L1197,41Z" fill="#f7b672" stroke="#f7b672" stroke-width="1.51"/><path d="M1080,-103L953,281L1197,41Z" fill="#f5ae70" stroke="#f5ae70" stroke-width="1.51"/><path d="M718,2392L378,2526L1079,2568Z" fill="#93b068" stroke="#93b068" stroke-width="1.51"/><path d="M864,1175L960,1561L1178,1296Z" fill="#ecf7a5" stroke="#ecf7a5" stroke-width="1.51"/><path d="M-196,-421L58,-412L108,-417Z" fill="#c8352e" stroke="#c8352e" stroke-width="1.51"/><path d="M1043,2181L718,2392L1079,2568Z" fill="#96c581" stroke="#96c581" stroke-width="1.51"/><path d="M766,-60L953,281L1080,-103Z" fill="#fbad76" stroke="#fbad76" stroke-width="1.51"/><path d="M876,-374L766,-60L1080,-103Z" fill="#f19b6a" stroke="#f19b6a" stroke-width="1.51"/><path d="M815,451L676,653L871,821Z" fill="#ffdb8c" stroke="#ffdb8c" stroke-width="1.51"/><path d="M766,-60L702,204L953,281Z" fill="#fdae70" stroke="#fdae70" stroke-width="1.51"/><path d="M864,1175L720,1215L960,1561Z" fill="#f1f3a1" stroke="#f1f3a1" stroke-width="1.51"/><path d="M959,1658L741,1734L976,1948Z" fill="#cae48d" stroke="#cae48d" stroke-width="1.51"/><path d="M976,1948L650,2182L1043,2181Z" fill="#acd486" stroke="#acd486" stroke-width="1.51"/><path d="M650,2182L718,2392L1043,2181Z" fill="#9fc779" stroke="#9fc779" stroke-width="1.51"/><path d="M720,1215L623,1545L960,1561Z" fill="#e8eb90" stroke="#e8eb90" stroke-width="1.51"/><path d="M741,1734L625,1888L976,1948Z" fill="#c4db82" stroke="#c4db82" stroke-width="1.51"/><path d="M625,1888L650,2182L976,1948Z" fill="#b5d37d" stroke="#b5d37d" stroke-width="1.51"/><path d="M741,1734L959,1658L960,1561Z" fill="#d6ea90" stroke="#d6ea90" stroke-width="1.51"/><path d="M623,1545L741,1734L960,1561Z" fill="#dae588" stroke="#dae588" stroke-width="1.51"/><path d="M871,821L688,892L950,997Z" fill="#ffefa4" stroke="#ffefa4" stroke-width="1.51"/><path d="M702,204L860,388L953,281Z" fill="#ffbe7b" stroke="#ffbe7b" stroke-width="1.51"/><path d="M688,892L864,1175L950,997Z" fill="#fff5ae" stroke="#fff5ae" stroke-width="1.51"/><path d="M625,1888L572,1967L650,2182Z" fill="#b6c971" stroke="#b6c971" stroke-width="1.51"/><path d="M688,892L720,1215L864,1175Z" fill="#fef3ab" stroke="#fef3ab" stroke-width="1.51"/><path d="M676,653L688,892L871,821Z" fill="#ffe492" stroke="#ffe492" stroke-width="1.51"/><path d="M568,-249L766,-60L876,-374Z" fill="#ea8f5b" stroke="#ea8f5b" stroke-width="1.51"/><path d="M627,-421L568,-249L876,-374Z" fill="#df8657" stroke="#df8657" stroke-width="1.51"/><path d="M702,204L815,451L860,388Z" fill="#ffc17a" stroke="#ffc17a" stroke-width="1.51"/><path d="M702,204L359,404L815,451Z" fill="#fdb76c" stroke="#fdb76c" stroke-width="1.51"/><path d="M359,404L676,653L815,451Z" fill="#fec573" stroke="#fec573" stroke-width="1.51"/><path d="M650,2182L538,2273L718,2392Z" fill="#9fbb6a" stroke="#9fbb6a" stroke-width="1.51"/><path d="M688,892L439,1284L720,1215Z" fill="#fde89b" stroke="#fde89b" stroke-width="1.51"/><path d="M439,1284L623,1545L720,1215Z" fill="#efe187" stroke="#efe187" stroke-width="1.51"/><path d="M443,91L702,204L766,-60Z" fill="#f89e5f" stroke="#f89e5f" stroke-width="1.51"/><path d="M568,-249L443,91L766,-60Z" fill="#f28e54" stroke="#f28e54" stroke-width="1.51"/><path d="M676,653L462,718L688,892Z" fill="#fed884" stroke="#fed884" stroke-width="1.51"/><path d="M411,826L439,1284L688,892Z" fill="#ffdc91" stroke="#ffdc91" stroke-width="1.51"/><path d="M623,1545L625,1888L741,1734Z" fill="#d1da78" stroke="#d1da78" stroke-width="1.51"/><path d="M445,1553L360,1741L623,1545Z" fill="#dccf6f" stroke="#dccf6f" stroke-width="1.51"/><path d="M623,1545L360,1741L625,1888Z" fill="#d2d06f" stroke="#d2d06f" stroke-width="1.51"/><path d="M359,404L462,718L676,653Z" fill="#fec171" stroke="#fec171" stroke-width="1.51"/><path d="M538,2273L378,2526L718,2392Z" fill="#9aaa5f" stroke="#9aaa5f" stroke-width="1.51"/><path d="M462,718L411,826L688,892Z" fill="#fed482" stroke="#fed482" stroke-width="1.51"/><path d="M443,91L359,404L702,204Z" fill="#fc9f5d" stroke="#fc9f5d" stroke-width="1.51"/><path d="M439,1284L445,1553L623,1545Z" fill="#e8d679" stroke="#e8d679" stroke-width="1.51"/><path d="M306,232L359,404L443,91Z" fill="#fa9354" stroke="#fa9354" stroke-width="1.51"/><path d="M335,31L443,91L568,-249Z" fill="#f2834b" stroke="#f2834b" stroke-width="1.51"/><path d="M572,1967L538,2273L650,2182Z" fill="#abc06b" stroke="#abc06b" stroke-width="1.51"/><path d="M411,826L209,1151L439,1284Z" fill="#ffd28c" stroke="#ffd28c" stroke-width="1.51"/><path d="M360,1741L572,1967L625,1888Z" fill="#c5c86c" stroke="#c5c86c" stroke-width="1.51"/><path d="M108,-417L568,-249L627,-421Z" fill="#da6e45" stroke="#da6e45" stroke-width="1.51"/><path d="M439,1284L305,1414L445,1553Z" fill="#ecce74" stroke="#ecce74" stroke-width="1.51"/><path d="M143,2064L258,2352L538,2273Z" fill="#a8a356" stroke="#a8a356" stroke-width="1.51"/><path d="M258,2352L378,2526L538,2273Z" fill="#9d9f54" stroke="#9d9f54" stroke-width="1.51"/><path d="M163,-137L335,31L568,-249Z" fill="#ed7241" stroke="#ed7241" stroke-width="1.51"/><path d="M108,-417L163,-137L568,-249Z" fill="#df613d" stroke="#df613d" stroke-width="1.51"/><path d="M143,2064L538,2273L572,1967Z" fill="#b1b360" stroke="#b1b360" stroke-width="1.51"/><path d="M360,1741L143,2064L572,1967Z" fill="#c1b860" stroke="#c1b860" stroke-width="1.51"/><path d="M135,1073L209,1151L411,826Z" fill="#ffc481" stroke="#ffc481" stroke-width="1.51"/><path d="M277,1705L360,1741L445,1553Z" fill="#d8c365" stroke="#d8c365" stroke-width="1.51"/><path d="M111,707L411,826L462,718Z" fill="#febd70" stroke="#febd70" stroke-width="1.51"/><path d="M359,404L111,707L462,718Z" fill="#fdb065" stroke="#fdb065" stroke-width="1.51"/><path d="M194,384L111,707L359,404Z" fill="#fb9d59" stroke="#fb9d59" stroke-width="1.51"/><path d="M335,31L306,232L443,91Z" fill="#f7874e" stroke="#f7874e" stroke-width="1.51"/><path d="M305,1414L277,1705L445,1553Z" fill="#e1c469" stroke="#e1c469" stroke-width="1.51"/><path d="M209,1151L305,1414L439,1284Z" fill="#f4c97a" stroke="#f4c97a" stroke-width="1.51"/><path d="M277,1705L143,2064L360,1741Z" fill="#c9b15c" stroke="#c9b15c" stroke-width="1.51"/><path d="M111,707L135,1073L411,826Z" fill="#ffb873" stroke="#ffb873" stroke-width="1.51"/><path d="M306,232L194,384L359,404Z" fill="#fa9554" stroke="#fa9554" stroke-width="1.51"/><path d="M258,2352L272,2580L378,2526Z" fill="#988e4b" stroke="#988e4b" stroke-width="1.51"/><path d="M-70,1830L143,2064L277,1705Z" fill="#c7a254" stroke="#c7a254" stroke-width="1.51"/><path d="M209,1151L18,1259L305,1414Z" fill="#f4bb72" stroke="#f4bb72" stroke-width="1.51"/><path d="M-118,1562L277,1705L305,1414Z" fill="#e0b15f" stroke="#e0b15f" stroke-width="1.51"/><path d="M-102,226L306,232L335,31Z" fill="#f67546" stroke="#f67546" stroke-width="1.51"/><path d="M163,-137L-102,226L335,31Z" fill="#ef643e" stroke="#ef643e" stroke-width="1.51"/><path d="M18,1259L-118,1562L305,1414Z" fill="#eaad61" stroke="#eaad61" stroke-width="1.51"/><path d="M-102,226L194,384L306,232Z" fill="#f77c49" stroke="#f77c49" stroke-width="1.51"/><path d="M-17,765L57,1062L111,707Z" fill="#fba668" stroke="#fba668" stroke-width="1.51"/><path d="M111,707L57,1062L135,1073Z" fill="#feb073" stroke="#feb073" stroke-width="1.51"/><path d="M143,2064L-104,2219L258,2352Z" fill="#a98f4b" stroke="#a98f4b" stroke-width="1.51"/><path d="M258,2352L-118,2399L272,2580Z" fill="#9b8244" stroke="#9b8244" stroke-width="1.51"/><path d="M-118,2399L-236,2502L272,2580Z" fill="#937139" stroke="#937139" stroke-width="1.51"/><path d="M-118,1562L-70,1830L277,1705Z" fill="#d2a151" stroke="#d2a151" stroke-width="1.51"/><path d="M-104,2219L-118,2399L258,2352Z" fill="#9d8142" stroke="#9d8142" stroke-width="1.51"/><path d="M108,-417L58,-412L163,-137Z" fill="#d74734" stroke="#d74734" stroke-width="1.51"/><path d="M-154,-186L-102,226L163,-137Z" fill="#e44c32" stroke="#e44c32" stroke-width="1.51"/><path d="M-172,522L111,707L194,384Z" fill="#f78f52" stroke="#f78f52" stroke-width="1.51"/><path d="M135,1073L18,1259L209,1151Z" fill="#fbb778" stroke="#fbb778" stroke-width="1.51"/><path d="M58,-412L-154,-186L163,-137Z" fill="#d84130" stroke="#d84130" stroke-width="1.51"/><path d="M-102,226L-172,522L194,384Z" fill="#f17845" stroke="#f17845" stroke-width="1.51"/><path d="M57,1062L18,1259L135,1073Z" fill="#fbb378" stroke="#fbb378" stroke-width="1.51"/><path d="M-70,1830L-145,1970L143,2064Z" fill="#ba934b" stroke="#ba934b" stroke-width="1.51"/><path d="M-172,522L-17,765L111,707Z" fill="#f59357" stroke="#f59357" stroke-width="1.51"/><path d="M-145,1970L-104,2219L143,2064Z" fill="#ae8b47" stroke="#ae8b47" stroke-width="1.51"/><path d="M-17,765L-207,913L57,1062Z" fill="#f7a167" stroke="#f7a167" stroke-width="1.51"/><path d="M-245,365L-172,522L-102,226Z" fill="#e96a3e" stroke="#e96a3e" stroke-width="1.51"/><path d="M-207,913L18,1259L57,1062Z" fill="#f9aa75" stroke="#f9aa75" stroke-width="1.51"/><path d="M-196,-421L-154,-186L58,-412Z" fill="#ca2d2a" stroke="#ca2d2a" stroke-width="1.51"/><path d="M-154,-186L-237,-179L-102,226Z" fill="#dc3c2b" stroke="#dc3c2b" stroke-width="1.51"/><path d="M-172,522L-264,666L-17,765Z" fill="#ef874f" stroke="#ef874f" stroke-width="1.51"/><path d="M-207,913L-396,1080L18,1259Z" fill="#f19e6e" stroke="#f19e6e" stroke-width="1.51"/><path d="M-396,1080L-349,1414L18,1259Z" fill="#e29861" stroke="#e29861" stroke-width="1.51"/><path d="M-349,1414L-118,1562L18,1259Z" fill="#e09a55" stroke="#e09a55" stroke-width="1.51"/><path d="M-237,-179L-299,247L-102,226Z" fill="#de4832" stroke="#de4832" stroke-width="1.51"/><path d="M-264,666L-207,913L-17,765Z" fill="#f09157" stroke="#f09157" stroke-width="1.51"/><path d="M-145,1970L-289,1995L-104,2219Z" fill="#aa8141" stroke="#aa8141" stroke-width="1.51"/><path d="M-289,1995L-145,1970L-70,1830Z" fill="#b68844" stroke="#b68844" stroke-width="1.51"/><path d="M-353,1606L-289,1995L-70,1830Z" fill="#ba8845" stroke="#ba8845" stroke-width="1.51"/><path d="M-118,1562L-353,1606L-70,1830Z" fill="#cb9148" stroke="#cb9148" stroke-width="1.51"/><path d="M-196,-421L-237,-179L-154,-186Z" fill="#ca2727" stroke="#ca2727" stroke-width="1.51"/><path d="M-373,2111L-236,2502L-118,2399Z" fill="#8f6e38" stroke="#8f6e38" stroke-width="1.51"/><path d="M-289,1995L-373,2111L-104,2219Z" fill="#a07b3f" stroke="#a07b3f" stroke-width="1.51"/><path d="M-373,2111L-118,2399L-104,2219Z" fill="#9a763c" stroke="#9a763c" stroke-width="1.51"/><path d="M-299,247L-245,365L-102,226Z" fill="#e35d3a" stroke="#e35d3a" stroke-width="1.51"/><path d="M-349,1414L-353,1606L-118,1562Z" fill="#cd904f" stroke="#cd904f" stroke-width="1.51"/><path d="M-245,365L-264,666L-172,522Z" fill="#e77646" stroke="#e77646" stroke-width="1.51"/><path d="M-264,666L-396,1080L-207,913Z" fill="#e68f5f" stroke="#e68f5f" stroke-width="1.51"/><path d="M-299,247L-264,666L-245,365Z" fill="#e26b41" stroke="#e26b41" stroke-width="1.51"/><path d="M-353,1606L-373,2111L-289,1995Z" fill="#a98044" stroke="#a98044" stroke-width="1.51"/><path d="M-299,247L-396,1080L-264,666Z" fill="#e07e4f" stroke="#e07e4f" stroke-width="1.51"/><path d="M-396,1080L-353,1606L-349,1414Z" fill="#d08f57" stroke="#d08f57" stroke-width="1.51"/><path d="M-396,1080L-373,2111L-353,1606Z" fill="#bf884b" stroke="#bf884b" stroke-width="1.51"/></svg>