<?xml version="1.0" encoding="UTF-8" standalone="no"?>
<!-- Created with Inkscape (http://www.inkscape.org/) -->

<svg
   xmlns:dc="http://purl.org/dc/elements/1.1/"
   xmlns:cc="http://creativecommons.org/ns#"
   xmlns:rdf="http://www.w3.org/1999/02/22-rdf-syntax-ns#"
   xmlns:svg="http://www.w3.org/2000/svg"
   xmlns="http://www.w3.org/2000/svg"
   xmlns:sodipodi="http://sodipodi.sourceforge.net/DTD/sodipodi-0.dtd"
   xmlns:inkscape="http://www.inkscape.org/namespaces/inkscape"
   version="1.1"
   width="533.6554"
   height="512"
   id="svg2"
   xml:space="preserve"
   inkscape:version="0.91 r13725"
   sodipodi:docname="mailru.svg"><sodipodi:namedview
     pagecolor="#ffffff"
     bordercolor="#666666"
     borderopacity="1"
     objecttolerance="10"
     gridtolerance="10"
     guidetolerance="10"
     inkscape:pageopacity="0"
     inkscape:pageshadow="2"
     inkscape:window-width="1280"
     inkscape:window-height="961"
     id="namedview3357"
     showgrid="false"
     showborder="true"
     units="px"
     fit-margin-top="0"
     fit-margin-left="0"
     fit-margin-right="0"
     fit-margin-bottom="0"
     inkscape:zoom="0.52618688"
     inkscape:cx="-15.033149"
     inkscape:cy="313.05836"
     inkscape:window-x="-8"
     inkscape:window-y="-8"
     inkscape:window-maximized="1"
     inkscape:current-layer="g10" /><metadata
     id="metadata8"><rdf:RDF><cc:Work
         rdf:about=""><dc:format>image/svg+xml</dc:format><dc:type
           rdf:resource="http://purl.org/dc/dcmitype/StillImage" /><dc:title></dc:title></cc:Work></rdf:RDF></metadata><defs
     id="defs6"><clipPath
       id="clipPath18"><path
         id="path20"
         inkscape:connector-curvature="0"
         d="m 0,0 4123,0 0,1058.69 -4123,0 L 0,0 Z" /></clipPath></defs><g
     id="g10"
     transform="matrix(1.25,0,0,-1.25,-1.900466,512)"><g
       transform="scale(0.1,0.1)"
       id="g14"
       style="fill:#fffafa"><path
         style="fill:#fffafa;fill-opacity:1;fill-rule:evenodd;stroke:none"
         id="path24"
         inkscape:connector-curvature="0"
         d="m 2887.1247,2067.4892 c -24.2698,472.0043 -374.6698,755.8596 -797.7541,755.8596 l -16.002,0 c -488.2729,0 -759.0768,-383.9988 -759.0768,-820.2027 0,-488.3413 327.6169,-796.8918 757.2156,-796.8918 478.9382,0 793.8727,350.8425 816.6841,765.9034 l -1.0668,95.3315 z m -811.3387,1178.212 c 326.2833,0 633.0802,-144.1888 858.2667,-370.0167 l 0,-0.8625 c 0,108.3885 72.9457,190.1409 174.2696,190.1409 l 25.5975,0.1305 c 158.3977,0 190.9411,-149.8178 190.9411,-197.3191 l 0.7943,-1685.5061 c -11.1901,-110.386 113.8474,-167.3522 183.2068,-96.5289 270.6676,278.1127 594.4031,1429.8136 -168.2658,2097.1002 -710.8154,622.1344 -1664.5554,519.6359 -2171.7757,169.9679 C 629.63017,2980.9521 284.57517,2157.8158 619.76787,1384.6887 985.10867,541.45324 2030.5888,289.97674 2651.9226,540.94254 c 314.6677,126.8987 459.986,-298.399 133.1975,-437.3332 -493.7488,-210.291 -1868.02013,-189.079801 -2510.03243,922.94496 -433.7243,750.9171 -410.6687,2072.0754 739.74383,2756.6066 880.0121,523.7389 2040.2923,378.818 2739.9177,-351.8865 731.3229,-763.9289 688.6509,-2194.3211 -24.6956,-2750.35346 -323.1793,-252.6285 -803.1847,-6.8037 -800.1489,361.36886 l -3.3252,120.3617 C 2701.5064,939.33164 2402.0693,809.03954 2075.786,809.03954 c -644.6791,0 -1211.88463,567.11466 -1211.88463,1211.77126 0,651.0574 567.20553,1224.8904 1211.88463,1224.8904 l 0,0" /></g></g></svg>