<?xml version="1.0" encoding="UTF-8" standalone="no"?>
<!-- Created with Inkscape (http://www.inkscape.org/) -->

<svg
   xmlns:dc="http://purl.org/dc/elements/1.1/"
   xmlns:cc="http://creativecommons.org/ns#"
   xmlns:rdf="http://www.w3.org/1999/02/22-rdf-syntax-ns#"
   xmlns:svg="http://www.w3.org/2000/svg"
   xmlns="http://www.w3.org/2000/svg"
   xmlns:sodipodi="http://sodipodi.sourceforge.net/DTD/sodipodi-0.dtd"
   xmlns:inkscape="http://www.inkscape.org/namespaces/inkscape"
   width="512"
   height="512"
   id="svg3411"
   version="1.1"
   inkscape:version="0.91 r13725"
   viewBox="0 0 512 512"
   sodipodi:docname="drawing-1.svg">
  <defs
     id="defs3413" />
  <sodipodi:namedview
     id="base"
     pagecolor="#ffffff"
     bordercolor="#666666"
     borderopacity="1.0"
     inkscape:pageopacity="0.0"
     inkscape:pageshadow="2"
     inkscape:zoom="0.77472527"
     inkscape:cx="320"
     inkscape:cy="240"
     inkscape:current-layer="layer1"
     inkscape:document-units="px"
     showgrid="false"
     units="px"
     inkscape:window-width="1280"
     inkscape:window-height="961"
     inkscape:window-x="-8"
     inkscape:window-y="-8"
     inkscape:window-maximized="1" />
  <metadata
     id="metadata3416">
    <rdf:RDF>
      <cc:Work
         rdf:about="">
        <dc:format>image/svg+xml</dc:format>
        <dc:type
           rdf:resource="http://purl.org/dc/dcmitype/StillImage" />
        <dc:title></dc:title>
      </cc:Work>
    </rdf:RDF>
  </metadata>
  <g
     id="layer1"
     inkscape:label="Layer 1"
     inkscape:groupmode="layer"
     transform="translate(0,31.99999)">
    <g
       id="layer1-8"
       inkscape:label="Layer 1"
       transform="matrix(0.43853625,0,0,0.43853625,99.832974,-8.3341197)">
      <path
         inkscape:export-ydpi="90"
         inkscape:export-xdpi="90"
         id="path40"
         d="m 607.04478,15.268356 -155.47964,0 c -152.77545,0 -282.33545,116.289804 -282.33545,342.060594 0,135.44204 62.74018,235.30483 174.56084,284.56543 l -208.6622,377.62712 c -6.82918,12.3267 0,21.8878 10.90632,21.8878 l 96.84434,0 c 8.17481,0 13.6584,-2.7282 16.38397,-9.5611 l 189.5776,-370.79403 68.19244,0 0,370.79403 c 0,4.077 4.07691,9.5611 9.53404,9.5611 l 84.57893,0 c 8.17455,0 10.90968,-4.1044 10.90968,-10.9169 l 0,-1001.542123 c -10e-4,-9.577706 -5.46065,-13.681921 -15.01087,-13.681921 z m -90.01509,558.232944 -57.28308,0 c -90.01324,0 -177.29504,-65.67242 -177.29504,-229.85147 0,-171.05178 81.82653,-240.82503 165.01653,-240.82503 l 69.5649,0 0,470.6765 z"
         inkscape:connector-curvature="0"
         style="fill:#fffafa;stroke:none" />
      <g
         transform="translate(24.001016,216.3622)"
         id="g3348" />
      <flowRoot
         style="font-style:normal;font-weight:normal;font-size:40px;line-height:125%;font-family:sans-serif;letter-spacing:0px;word-spacing:0px;fill:#000000;fill-opacity:1;stroke:none;stroke-width:1px;stroke-linecap:butt;stroke-linejoin:miter;stroke-opacity:1"
         id="flowRoot3395"
         xml:space="preserve"><flowRegion
           id="flowRegion3397"><rect
             y="104.83912"
             x="70.710678"
             height="404.38028"
             width="261.86072"
             id="rect3399" /></flowRegion><flowPara
           id="flowPara3401" /></flowRoot>    </g>
  </g>
</svg>
